<svg viewBox="0 0 250 187" fill="none" xmlns="http://www.w3.org/2000/svg">
<path d="M250 163.7H0V163.825H250V163.7Z" fill="#EBEBEB"/>
<path d="M224.95 171.745H208.39V171.87H224.95V171.745Z" fill="#EBEBEB"/>
<path d="M165.61 173.105H161.265V173.23H165.61V173.105Z" fill="#EBEBEB"/>
<path d="M207.89 167.105H198.295V167.23H207.89V167.105Z" fill="#EBEBEB"/>
<path d="M47.825 167.945H26.23V168.07H47.825V167.945Z" fill="#EBEBEB"/>
<path d="M55.4448 167.945H52.2798V168.07H55.4448V167.945Z" fill="#EBEBEB"/>
<path d="M112.575 170.055H65.7349V170.18H112.575V170.055Z" fill="#EBEBEB"/>
<path d="M118.5 141.4H21.955C21.1987 141.399 20.4738 141.097 19.9394 140.562C19.4051 140.027 19.105 139.301 19.105 138.545V2.83C19.1116 2.07801 19.4146 1.35899 19.9482 0.829109C20.4818 0.299229 21.203 0.00128819 21.955 0H118.5C119.257 0 119.983 0.300794 120.519 0.83621C121.054 1.37163 121.355 2.09781 121.355 2.855V138.545C121.355 139.302 121.054 140.028 120.519 140.564C119.983 141.099 119.257 141.4 118.5 141.4ZM21.955 0.1C21.2318 0.101325 20.5387 0.389533 20.0278 0.901363C19.5169 1.41319 19.23 2.10682 19.23 2.83V138.545C19.23 139.268 19.5169 139.962 20.0278 140.474C20.5387 140.985 21.2318 141.274 21.955 141.275H118.5C119.224 141.274 119.917 140.986 120.429 140.474C120.941 139.962 121.229 139.269 121.23 138.545V2.83C121.229 2.10636 120.941 1.41275 120.429 0.901058C119.917 0.38937 119.224 0.101322 118.5 0.1H21.955Z" fill="#EBEBEB"/>
<path d="M226.655 141.4H130.105C129.348 141.399 128.623 141.097 128.088 140.562C127.553 140.027 127.251 139.302 127.25 138.545V2.83C127.258 2.07756 127.562 1.35854 128.096 0.828796C128.631 0.299054 129.353 0.00127414 130.105 0H226.655C227.406 0.00260225 228.126 0.301125 228.659 0.830864C229.191 1.3606 229.493 2.07888 229.5 2.83V138.545C229.5 139.3 229.201 140.025 228.667 140.56C228.134 141.095 227.41 141.397 226.655 141.4ZM130.105 0.1C129.381 0.101322 128.688 0.38937 128.176 0.901058C127.664 1.41275 127.376 2.10636 127.375 2.83V138.545C127.376 139.269 127.664 139.962 128.176 140.474C128.688 140.986 129.381 141.274 130.105 141.275H226.655C227.379 141.274 228.072 140.986 228.584 140.474C229.096 139.962 229.384 139.269 229.385 138.545V2.83C229.384 2.10636 229.096 1.41275 228.584 0.901058C228.072 0.38937 227.379 0.101322 226.655 0.1H130.105Z" fill="#EBEBEB"/>
<path d="M176.965 21.57C176.966 21.247 176.902 20.9272 176.779 20.6289C176.655 20.3307 176.473 20.06 176.243 19.8325C176.014 19.6051 175.742 19.4254 175.443 19.304C175.143 19.1825 174.823 19.1217 174.5 19.125C174.262 19.1249 174.024 19.1586 173.795 19.225C173.831 18.9766 173.85 18.726 173.85 18.475C173.85 17.106 173.308 15.7927 172.342 14.8228C171.375 13.8529 170.064 13.3053 168.695 13.3C168.375 13.3003 168.055 13.3288 167.74 13.385C167.23 12.5463 166.46 11.8964 165.548 11.5333C164.636 11.1702 163.63 11.1136 162.683 11.3721C161.736 11.6307 160.899 12.1902 160.297 12.9664C159.696 13.7426 159.364 14.6933 159.35 15.675H159.275C158.194 15.7125 157.169 16.1685 156.417 16.9469C155.665 17.7253 155.245 18.7652 155.245 19.8475C155.245 20.9298 155.665 21.9697 156.417 22.7482C157.169 23.5266 158.194 23.9826 159.275 24.02H174.585C175.223 24.0018 175.828 23.7356 176.273 23.2781C176.717 22.8206 176.965 22.2078 176.965 21.57Z" fill="#F0F0F0"/>
<path d="M167.975 25.225V20.46H164.09V25.225H160.925L166.035 29.545L171.145 25.225H167.975Z" fill="#E0E0E0"/>
<path d="M100.34 28.78C100.34 27.4031 99.7932 26.0825 98.82 25.1083C97.8468 24.1342 96.5267 23.5863 95.1498 23.585C94.6418 23.5857 94.1366 23.6598 93.6498 23.805C93.7305 23.2772 93.7706 22.744 93.7698 22.21C93.7698 19.2926 92.6109 16.4947 90.548 14.4318C88.4851 12.3689 85.6872 11.21 82.7698 11.21C82.0903 11.2098 81.4124 11.2735 80.7448 11.4C79.6613 9.61825 78.0276 8.23729 76.0903 7.46556C74.153 6.69383 72.0172 6.57321 70.0053 7.1219C67.9934 7.6706 66.2146 8.85882 64.9374 10.5073C63.6601 12.1557 62.9537 14.1748 62.9248 16.26H62.7648C61.5839 16.2319 60.4093 16.4403 59.3101 16.8728C58.2109 17.3053 57.2093 17.9533 56.3642 18.7786C55.5191 19.6038 54.8476 20.5898 54.389 21.6784C53.9305 22.767 53.6943 23.9363 53.6943 25.1175C53.6943 26.2987 53.9305 27.468 54.389 28.5566C54.8476 29.6452 55.5191 30.6312 56.3642 31.4564C57.2093 32.2817 58.2109 32.9297 59.3101 33.3622C60.4093 33.7947 61.5839 34.0031 62.7648 33.975H95.2898C96.6427 33.9385 97.9279 33.3749 98.8713 32.4045C99.8146 31.434 100.342 30.1334 100.34 28.78Z" fill="#F0F0F0"/>
<path d="M72.9999 29.18V39.305H81.2549V29.18H87.9799L77.1249 20.01L66.2749 29.18H72.9999Z" fill="#E0E0E0"/>
<path d="M104.485 54.065V40.45H146.175V53.93" stroke="#E6E6E6" stroke-miterlimit="10"/>
<path d="M125.945 27.62V54.03" stroke="#E6E6E6" stroke-miterlimit="10"/>
<path d="M133.04 22.435H118.86C118.532 22.435 118.265 22.7014 118.265 23.03V31.465C118.265 31.7936 118.532 32.06 118.86 32.06H133.04C133.369 32.06 133.635 31.7936 133.635 31.465V23.03C133.635 22.7014 133.369 22.435 133.04 22.435Z" fill="#F0F0F0"/>
<path d="M132.89 23.565H119.005C118.889 23.565 118.795 23.659 118.795 23.775V31.465C118.795 31.581 118.889 31.675 119.005 31.675H132.89C133.006 31.675 133.1 31.581 133.1 31.465V23.775C133.1 23.659 133.006 23.565 132.89 23.565Z" fill="#E0E0E0"/>
<path d="M111.575 52.83H97.3948C97.0662 52.83 96.7998 53.0964 96.7998 53.425V61.86C96.7998 62.1886 97.0662 62.455 97.3948 62.455H111.575C111.903 62.455 112.17 62.1886 112.17 61.86V53.425C112.17 53.0964 111.903 52.83 111.575 52.83Z" fill="#F0F0F0"/>
<path d="M111.425 53.96H97.5401C97.4241 53.96 97.3301 54.054 97.3301 54.17V61.86C97.3301 61.976 97.4241 62.07 97.5401 62.07H111.425C111.541 62.07 111.635 61.976 111.635 61.86V54.17C111.635 54.054 111.541 53.96 111.425 53.96Z" fill="#E0E0E0"/>
<path d="M133.04 52.83H118.86C118.532 52.83 118.265 53.0964 118.265 53.425V61.86C118.265 62.1886 118.532 62.455 118.86 62.455H133.04C133.369 62.455 133.635 62.1886 133.635 61.86V53.425C133.635 53.0964 133.369 52.83 133.04 52.83Z" fill="#F0F0F0"/>
<path d="M132.89 53.96H119.005C118.889 53.96 118.795 54.054 118.795 54.17V61.86C118.795 61.976 118.889 62.07 119.005 62.07H132.89C133.006 62.07 133.1 61.976 133.1 61.86V54.17C133.1 54.054 133.006 53.96 132.89 53.96Z" fill="#E0E0E0"/>
<path d="M153.3 52.83H139.12C138.791 52.83 138.525 53.0964 138.525 53.425V61.86C138.525 62.1886 138.791 62.455 139.12 62.455H153.3C153.629 62.455 153.895 62.1886 153.895 61.86V53.425C153.895 53.0964 153.629 52.83 153.3 52.83Z" fill="#F0F0F0"/>
<path d="M153.15 53.96H139.265C139.149 53.96 139.055 54.054 139.055 54.17V61.86C139.055 61.976 139.149 62.07 139.265 62.07H153.15C153.266 62.07 153.36 61.976 153.36 61.86V54.17C153.36 54.054 153.266 53.96 153.15 53.96Z" fill="#E0E0E0"/>
<path d="M125.658 36.3254L121.819 40.165C121.66 40.3231 121.66 40.5796 121.819 40.7377L125.658 44.5773C125.816 44.7355 126.073 44.7355 126.231 44.5773L130.071 40.7377C130.229 40.5796 130.229 40.3231 130.071 40.165L126.231 36.3254C126.073 36.1672 125.816 36.1672 125.658 36.3254Z" fill="#E0E0E0"/>
<path opacity="0.8" d="M44.545 33.825H34.54C34.2997 33.825 34.105 34.0198 34.105 34.26V39.905C34.105 40.1452 34.2997 40.34 34.54 40.34H44.545C44.7852 40.34 44.98 40.1452 44.98 39.905V34.26C44.98 34.0198 44.7852 33.825 44.545 33.825Z" fill="#E0E0E0"/>
<path d="M36.9098 47.84H28.9848C28.7446 47.84 28.5498 48.0348 28.5498 48.275V52.38C28.5498 52.6202 28.7446 52.815 28.9848 52.815H36.9098C37.15 52.815 37.3448 52.6202 37.3448 52.38V48.275C37.3448 48.0348 37.15 47.84 36.9098 47.84Z" fill="#E0E0E0"/>
<path d="M50.255 47.84H42.33C42.0898 47.84 41.895 48.0348 41.895 48.275V52.38C41.895 52.6202 42.0898 52.815 42.33 52.815H50.255C50.4953 52.815 50.69 52.6202 50.69 52.38V48.275C50.69 48.0348 50.4953 47.84 50.255 47.84Z" fill="#E0E0E0"/>
<path d="M42.0501 58.37H38.3051C38.0649 58.37 37.8701 58.5648 37.8701 58.805V62.185C37.8701 62.4252 38.0649 62.62 38.3051 62.62H42.0501C42.2904 62.62 42.4851 62.4252 42.4851 62.185V58.805C42.4851 58.5648 42.2904 58.37 42.0501 58.37Z" fill="#E0E0E0"/>
<path d="M47.91 58.37H44.165C43.9247 58.37 43.73 58.5648 43.73 58.805V62.185C43.73 62.4252 43.9247 62.62 44.165 62.62H47.91C48.1502 62.62 48.345 62.4252 48.345 62.185V58.805C48.345 58.5648 48.1502 58.37 47.91 58.37Z" fill="#E0E0E0"/>
<path d="M53.7752 58.37H50.0302C49.79 58.37 49.5952 58.5648 49.5952 58.805V62.185C49.5952 62.4252 49.79 62.62 50.0302 62.62H53.7752C54.0155 62.62 54.2102 62.4252 54.2102 62.185V58.805C54.2102 58.5648 54.0155 58.37 53.7752 58.37Z" fill="#E0E0E0"/>
<path d="M28.4852 58.37H24.7402C24.4999 58.37 24.3052 58.5648 24.3052 58.805V62.185C24.3052 62.4252 24.4999 62.62 24.7402 62.62H28.4852C28.7254 62.62 28.9202 62.4252 28.9202 62.185V58.805C28.9202 58.5648 28.7254 58.37 28.4852 58.37Z" fill="#E0E0E0"/>
<path d="M34.845 58.37H31.1C30.8598 58.37 30.665 58.5648 30.665 58.805V62.185C30.665 62.4252 30.8598 62.62 31.1 62.62H34.845C35.0853 62.62 35.28 62.4252 35.28 62.185V58.805C35.28 58.5648 35.0853 58.37 34.845 58.37Z" fill="#E0E0E0"/>
<path d="M45.79 47.84H46.29V44.34H39.79V40.34H39.29V44.34H32.79V47.84H33.29V44.84H45.79V47.84Z" fill="#E0E0E0"/>
<path d="M32.79 55.84H26.29V58.34H26.79V56.34H32.79V58.34H33.29V52.84H32.79V55.84Z" fill="#E0E0E0"/>
<path d="M46.29 56.34V52.84H45.79V56.34H39.79V58.34H40.29V56.84H45.79V58.34H46.29V56.84H51.79V58.34H52.29V56.34H46.29Z" fill="#E0E0E0"/>
<path d="M190.5 35.39V39L192.35 39.175C192.598 40.3583 193.066 41.4844 193.73 42.495L192.54 43.93L195.08 46.47L196.515 45.28C197.524 45.9457 198.651 46.414 199.835 46.66L200 48.5H203.59L203.765 46.65C204.949 46.404 206.076 45.9357 207.085 45.27L208.52 46.46L211.06 43.92L209.875 42.5C210.539 41.4894 211.007 40.3633 211.255 39.18L213.105 39.005V35.415L211.255 35.24C211.008 34.058 210.54 32.9333 209.875 31.925L211.065 30.49L208.525 27.95L207.09 29.135C206.079 28.4713 204.953 28.0032 203.77 27.755L203.595 25.905H200L199.825 27.755C198.642 28.0032 197.516 28.4713 196.505 29.135L195.07 27.95L192.53 30.49L193.72 31.925C193.055 32.9333 192.587 34.058 192.34 35.24L190.5 35.39ZM201.805 32.325C202.767 32.325 203.708 32.6105 204.508 33.1452C205.309 33.68 205.932 34.4401 206.3 35.3294C206.668 36.2187 206.764 37.1971 206.576 38.141C206.388 39.0848 205.924 39.9517 205.243 40.6318C204.562 41.312 203.695 41.775 202.751 41.9621C201.807 42.1493 200.829 42.0522 199.94 41.6832C199.051 41.3142 198.291 40.6899 197.757 39.8892C197.223 39.0885 196.939 38.1474 196.94 37.185C196.941 35.8965 197.454 34.6611 198.365 33.7499C199.276 32.8388 200.511 32.3263 201.8 32.325H201.805Z" fill="#F5F5F5"/>
<path d="M192.815 61.6C193.742 61.405 194.624 61.0369 195.415 60.515L196.54 61.45L198.54 59.45L197.61 58.325C198.129 57.5335 198.496 56.6516 198.69 55.725L200.14 55.585V52.77L198.69 52.635C198.497 51.7081 198.13 50.826 197.61 50.035L198.54 48.91L196.54 46.91L195.415 47.84C194.624 47.3196 193.742 46.9532 192.815 46.76L192.68 45.31H189.865L189.73 46.76C188.803 46.9532 187.921 47.3196 187.13 47.84L186 46.93L184 48.93L184.93 50.055C184.41 50.846 184.043 51.7281 183.85 52.655L182.4 52.79V55.605L183.85 55.745C184.044 56.6716 184.41 57.5535 184.93 58.345L184 59.46L186 61.46L187.125 60.525C187.916 61.0469 188.798 61.415 189.725 61.61L189.86 63.055H192.675L192.815 61.6ZM187.46 54.19C187.459 53.4353 187.682 52.6972 188.1 52.0691C188.519 51.4411 189.114 50.9513 189.812 50.6618C190.509 50.3723 191.276 50.2961 192.016 50.4427C192.756 50.5893 193.437 50.9523 193.971 51.4856C194.505 52.019 194.869 52.6987 195.016 53.4389C195.164 54.1791 195.089 54.9464 194.8 55.6438C194.511 56.3412 194.022 56.9373 193.395 57.3567C192.767 57.7761 192.03 58 191.275 58C190.264 58 189.294 57.5988 188.579 56.8844C187.864 56.17 187.461 55.2009 187.46 54.19Z" fill="#F5F5F5"/>
<path d="M186.535 46.365L187.48 47.145L189.155 45.475L188.37 44.53C188.808 43.8656 189.117 43.1242 189.28 42.345L190.495 42.23V39.87L189.28 39.755C189.117 38.9758 188.808 38.2344 188.37 37.57L189.155 36.625L187.5 34.955L186.555 35.735C185.892 35.2976 185.152 34.9889 184.375 34.825L184.26 33.61H181.895L181.78 34.825C181.001 34.9878 180.259 35.2966 179.595 35.735L178.65 34.955L176.98 36.625L177.76 37.57C177.323 38.2347 177.016 38.9761 176.855 39.755L175.635 39.87V42.23L176.855 42.345C177.016 43.1239 177.323 43.8653 177.76 44.53L176.96 45.5L178.63 47.17L179.575 46.39C180.238 46.8288 180.98 47.1361 181.76 47.295L181.875 48.515H184.24L184.355 47.295C185.134 47.1275 185.874 46.8117 186.535 46.365ZM179.855 41.05C179.855 40.4171 180.042 39.7984 180.394 39.2722C180.746 38.7459 181.245 38.3358 181.83 38.0936C182.415 37.8514 183.058 37.788 183.679 37.9115C184.3 38.035 184.87 38.3397 185.318 38.7873C185.765 39.2348 186.07 39.805 186.193 40.4257C186.317 41.0465 186.253 41.6899 186.011 42.2746C185.769 42.8593 185.359 43.3591 184.833 43.7107C184.306 44.0623 183.688 44.25 183.055 44.25C182.206 44.25 181.392 43.9129 180.792 43.3127C180.192 42.7126 179.855 41.8987 179.855 41.05Z" fill="#F5F5F5"/>
<path d="M219.695 134.515H186.12V156.35H219.695V134.515Z" fill="#F5F5F5"/>
<path d="M218.46 138.61H187.345V155.26H218.46V138.61Z" fill="#E0E0E0"/>
<path d="M212.9 141.1H189.88V141.815H212.9V141.1Z" fill="#F5F5F5"/>
<path d="M200.925 143.29H189.88V144.005H200.925V143.29Z" fill="#F5F5F5"/>
<path d="M203.79 145.485H189.88V146.2H203.79V145.485Z" fill="#F5F5F5"/>
<path d="M194.78 147.68H189.88V148.395H194.78V147.68Z" fill="#F5F5F5"/>
<path d="M193.055 149.875H189.88V150.59H193.055V149.875Z" fill="#F5F5F5"/>
<path d="M47.7945 134.391L23.9048 134.5L23.9717 149.235L47.8614 149.126L47.7945 134.391Z" fill="#EBEBEB"/>
<path d="M33.0699 145.53C32.964 145.53 32.8607 145.497 32.7749 145.435L28.4199 142.25C28.3568 142.204 28.3055 142.144 28.2699 142.074C28.2343 142.005 28.2154 141.928 28.2149 141.85C28.2141 141.772 28.2318 141.694 28.2665 141.624C28.3013 141.553 28.3521 141.492 28.4149 141.445L32.7449 138.22C32.8516 138.141 32.9853 138.108 33.1166 138.128C33.2479 138.147 33.366 138.218 33.4449 138.325C33.5238 138.432 33.557 138.565 33.5373 138.697C33.5177 138.828 33.4466 138.946 33.3399 139.025L29.5549 141.845L33.3649 144.625C33.4506 144.687 33.5144 144.775 33.5471 144.875C33.5799 144.976 33.5798 145.084 33.547 145.185C33.5142 145.286 33.4504 145.373 33.3646 145.435C33.2789 145.497 33.1757 145.53 33.0699 145.53Z" fill="#FAFAFA"/>
<path d="M38.7302 145.5C38.6517 145.501 38.5742 145.483 38.5038 145.448C38.4334 145.414 38.3722 145.363 38.3252 145.3C38.286 145.247 38.2577 145.187 38.2418 145.123C38.2259 145.06 38.2227 144.993 38.2325 144.928C38.2422 144.863 38.2647 144.801 38.2986 144.744C38.3326 144.688 38.3773 144.639 38.4302 144.6L42.2152 141.78L38.4052 139C38.2984 138.921 38.2274 138.803 38.2077 138.672C38.188 138.54 38.2213 138.407 38.3002 138.3C38.3791 138.193 38.4971 138.122 38.6284 138.103C38.7597 138.083 38.8934 138.116 39.0002 138.195L43.3552 141.375C43.4189 141.422 43.4706 141.483 43.5063 141.553C43.5419 141.623 43.5604 141.701 43.5602 141.78C43.5602 141.858 43.5421 141.934 43.5074 142.004C43.4727 142.073 43.4223 142.133 43.3602 142.18L39.0302 145.405C38.943 145.468 38.8378 145.501 38.7302 145.5Z" fill="#FAFAFA"/>
<path d="M34.7598 145.525C34.7035 145.524 34.6477 145.514 34.5948 145.495C34.4705 145.451 34.3686 145.359 34.3115 145.24C34.2544 145.121 34.2466 144.985 34.2898 144.86L36.5348 138.44C36.5565 138.378 36.5902 138.321 36.6339 138.272C36.6777 138.223 36.7307 138.183 36.7899 138.154C36.8491 138.126 36.9133 138.109 36.9789 138.105C37.0446 138.102 37.1103 138.111 37.1723 138.133C37.2344 138.154 37.2915 138.188 37.3406 138.232C37.3896 138.275 37.4295 138.328 37.4581 138.388C37.4867 138.447 37.5033 138.511 37.507 138.577C37.5107 138.642 37.5015 138.708 37.4798 138.77L35.2348 145.19C35.2004 145.288 35.1362 145.374 35.051 145.434C34.9658 145.494 34.864 145.526 34.7598 145.525Z" fill="#FAFAFA"/>
<path d="M125 186.28C178.541 186.28 221.945 183.746 221.945 180.62C221.945 177.494 178.541 174.96 125 174.96C71.4589 174.96 28.0552 177.494 28.0552 180.62C28.0552 183.746 71.4589 186.28 125 186.28Z" fill="#F5F5F5"/>
<path d="M167.19 180.62H170.865L175.865 153H172.19L167.19 180.62Z" fill="#263238"/>
<path opacity="0.2" d="M167.19 180.62H170.865L175.865 153H172.19L167.19 180.62Z" fill="white"/>
<path opacity="0.2" d="M167.19 180.62H169.865L174.865 153H172.19L167.19 180.62Z" fill="white"/>
<path d="M156.845 161.215H171.54C171.647 161.216 171.752 161.195 171.851 161.155C171.949 161.114 172.039 161.055 172.114 160.979C172.19 160.904 172.249 160.814 172.29 160.716C172.33 160.617 172.351 160.512 172.35 160.405C172.351 160.298 172.33 160.193 172.29 160.094C172.249 159.996 172.19 159.906 172.114 159.831C172.039 159.755 171.949 159.696 171.851 159.655C171.752 159.615 171.647 159.594 171.54 159.595H156.845C156.739 159.594 156.633 159.615 156.534 159.655C156.436 159.696 156.346 159.755 156.271 159.831C156.196 159.906 156.136 159.996 156.095 160.094C156.055 160.193 156.035 160.298 156.035 160.405C156.035 160.512 156.055 160.617 156.095 160.716C156.136 160.814 156.196 160.904 156.271 160.979C156.346 161.055 156.436 161.114 156.534 161.155C156.633 161.195 156.739 161.216 156.845 161.215Z" fill="#263238"/>
<path d="M155.21 170.465H169.91C170.125 170.464 170.331 170.377 170.483 170.225C170.635 170.072 170.72 169.865 170.72 169.65C170.719 169.436 170.633 169.23 170.481 169.079C170.33 168.927 170.124 168.841 169.91 168.84H155.21C154.995 168.841 154.79 168.927 154.639 169.079C154.487 169.23 154.401 169.436 154.4 169.65C154.4 169.865 154.485 170.072 154.637 170.225C154.789 170.377 154.995 170.464 155.21 170.465Z" fill="#263238"/>
<path d="M152.19 180.62H155.865L160.865 153H157.19L152.19 180.62Z" fill="#263238"/>
<path opacity="0.2" d="M152.19 180.62H155.865L160.865 153H157.19L152.19 180.62Z" fill="white"/>
<path opacity="0.2" d="M152.19 180.62H154.865L159.865 153H157.19L152.19 180.62Z" fill="white"/>
<path d="M186.365 180.62H182.69L177.69 153H181.365L186.365 180.62Z" fill="#263238"/>
<path opacity="0.4" d="M186.365 180.62H182.69L177.69 153H181.365L186.365 180.62Z" fill="white"/>
<path opacity="0.2" d="M185.365 180.62H182.69L177.69 153H180.365L185.365 180.62Z" fill="white"/>
<path d="M179.91 161.215H165.21C164.995 161.215 164.789 161.13 164.637 160.978C164.485 160.826 164.4 160.62 164.4 160.405C164.4 160.19 164.485 159.984 164.637 159.832C164.789 159.68 164.995 159.595 165.21 159.595H179.91C180.125 159.595 180.331 159.68 180.483 159.832C180.635 159.984 180.72 160.19 180.72 160.405C180.72 160.62 180.635 160.826 180.483 160.978C180.331 161.13 180.125 161.215 179.91 161.215Z" fill="#263238"/>
<path d="M181.54 170.465H166.845C166.738 170.465 166.633 170.444 166.534 170.403C166.435 170.362 166.346 170.302 166.271 170.226C166.195 170.15 166.136 170.06 166.095 169.962C166.055 169.863 166.035 169.757 166.035 169.65C166.035 169.435 166.121 169.229 166.272 169.077C166.424 168.925 166.63 168.84 166.845 168.84H181.54C181.755 168.84 181.961 168.925 182.113 169.077C182.265 169.229 182.35 169.435 182.35 169.65C182.351 169.757 182.33 169.863 182.29 169.962C182.25 170.06 182.19 170.15 182.115 170.226C182.039 170.302 181.95 170.362 181.851 170.403C181.753 170.444 181.647 170.465 181.54 170.465Z" fill="#263238"/>
<path opacity="0.2" d="M179.91 161.215H165.21C164.995 161.215 164.789 161.13 164.637 160.978C164.485 160.826 164.4 160.62 164.4 160.405C164.4 160.19 164.485 159.984 164.637 159.832C164.789 159.68 164.995 159.595 165.21 159.595H179.91C180.125 159.595 180.331 159.68 180.483 159.832C180.635 159.984 180.72 160.19 180.72 160.405C180.72 160.62 180.635 160.826 180.483 160.978C180.331 161.13 180.125 161.215 179.91 161.215Z" fill="white"/>
<path opacity="0.2" d="M181.54 170.465H166.845C166.738 170.465 166.633 170.444 166.534 170.403C166.435 170.362 166.346 170.302 166.271 170.226C166.195 170.15 166.136 170.06 166.095 169.962C166.055 169.863 166.035 169.757 166.035 169.65C166.035 169.435 166.121 169.229 166.272 169.077C166.424 168.925 166.63 168.84 166.845 168.84H181.54C181.755 168.84 181.961 168.925 182.113 169.077C182.265 169.229 182.35 169.435 182.35 169.65C182.351 169.757 182.33 169.863 182.29 169.962C182.25 170.06 182.19 170.15 182.115 170.226C182.039 170.302 181.95 170.362 181.851 170.403C181.753 170.444 181.647 170.465 181.54 170.465Z" fill="white"/>
<path d="M171.365 180.62H167.69L162.69 153H166.365L171.365 180.62Z" fill="#263238"/>
<path opacity="0.4" d="M171.365 180.62H167.69L162.69 153H166.365L171.365 180.62Z" fill="white"/>
<path opacity="0.2" d="M170.365 180.62H167.69L162.69 153H165.365L170.365 180.62Z" fill="white"/>
<path d="M182.795 151.68H156.25C155.921 151.68 155.655 151.946 155.655 152.275V153.72C155.655 154.049 155.921 154.315 156.25 154.315H182.795C183.123 154.315 183.39 154.049 183.39 153.72V152.275C183.39 151.946 183.123 151.68 182.795 151.68Z" fill="#263238"/>
<path opacity="0.2" d="M166.34 151.68H156.25C155.921 151.68 155.655 151.946 155.655 152.275V153.72C155.655 154.049 155.921 154.315 156.25 154.315H166.34C166.668 154.315 166.935 154.049 166.935 153.72V152.275C166.935 151.946 166.668 151.68 166.34 151.68Z" fill="white"/>
<path d="M97.1751 158.425H63.6001V180.26H97.1751V158.425Z" fill="#725CFF"/>
<path opacity="0.6" d="M97.1751 158.425H63.6001V180.26H97.1751V158.425Z" fill="white"/>
<path d="M95.9501 162.52H64.8301V179.17H95.9501V162.52Z" fill="#725CFF"/>
<path d="M90.3852 165.005H67.3652V165.72H90.3852V165.005Z" fill="white"/>
<path d="M78.4102 167.2H67.3652V167.915H78.4102V167.2Z" fill="white"/>
<path d="M81.2752 169.395H67.3652V170.11H81.2752V169.395Z" fill="white"/>
<path d="M72.2652 171.585H67.3652V172.3H72.2652V171.585Z" fill="white"/>
<path d="M70.5402 173.78H67.3652V174.495H70.5402V173.78Z" fill="white"/>
<path d="M138.665 180.62H111.335L115.96 144.285H134.04L138.665 180.62Z" fill="#725CFF"/>
<path opacity="0.6" d="M138.665 180.62H111.335L114.5 155.76L115.965 144.285H134.035L136.195 161.215L138.665 180.62Z" fill="white"/>
<path opacity="0.1" d="M136.195 161.215L114.5 155.76L115.965 144.285H134.035L136.195 161.215Z" fill="black"/>
<path d="M189.435 54.69H60.565C60.1319 54.69 59.703 54.7754 59.3029 54.9413C58.9028 55.1072 58.5394 55.3504 58.2333 55.6569C57.9273 55.9634 57.6847 56.3272 57.5194 56.7275C57.3541 57.1279 57.2694 57.5569 57.27 57.99V145.23C57.27 146.104 57.6172 146.942 58.2351 147.56C58.853 148.178 59.6911 148.525 60.565 148.525H189.435C190.309 148.525 191.147 148.178 191.765 147.56C192.383 146.942 192.73 146.104 192.73 145.23V58C192.732 57.566 192.648 57.136 192.484 56.7345C192.319 56.333 192.076 55.9679 191.77 55.6604C191.464 55.3528 191.1 55.1088 190.699 54.9422C190.299 54.7757 189.869 54.69 189.435 54.69Z" fill="#725CFF"/>
<path opacity="0.7" d="M189.435 54.69H60.565C60.1319 54.69 59.703 54.7754 59.3029 54.9413C58.9028 55.1072 58.5394 55.3504 58.2333 55.6569C57.9273 55.9634 57.6847 56.3272 57.5194 56.7275C57.3541 57.1279 57.2694 57.5569 57.27 57.99V145.23C57.27 146.104 57.6172 146.942 58.2351 147.56C58.853 148.178 59.6911 148.525 60.565 148.525H189.435C190.309 148.525 191.147 148.178 191.765 147.56C192.383 146.942 192.73 146.104 192.73 145.23V58C192.732 57.566 192.648 57.136 192.484 56.7345C192.319 56.333 192.076 55.9679 191.77 55.6604C191.464 55.3528 191.1 55.1088 190.699 54.9422C190.299 54.7757 189.869 54.69 189.435 54.69Z" fill="white"/>
<path d="M188.395 57.92H61.6099V142.045H188.395V57.92Z" fill="#725CFF"/>
<path d="M147.95 177.89H102.045C101.758 177.89 101.525 178.123 101.525 178.41V180.055C101.525 180.342 101.758 180.575 102.045 180.575H147.95C148.237 180.575 148.47 180.342 148.47 180.055V178.41C148.47 178.123 148.237 177.89 147.95 177.89Z" fill="#725CFF"/>
<path opacity="0.7" d="M147.95 177.89H102.045C101.758 177.89 101.525 178.123 101.525 178.41V180.055C101.525 180.342 101.758 180.575 102.045 180.575H147.95C148.237 180.575 148.47 180.342 148.47 180.055V178.41C148.47 178.123 148.237 177.89 147.95 177.89Z" fill="white"/>
<path opacity="0.2" d="M188.395 58H61.6099V70.54H188.395V58Z" fill="black"/>
<path opacity="0.4" d="M115.94 70.69H61.6099V142.045H115.94V70.69Z" fill="white"/>
<path d="M168.88 88.89V90.14H167.63" stroke="white" stroke-miterlimit="10"/>
<path d="M164.99 90.14H124.04" stroke="white" stroke-miterlimit="10" stroke-dasharray="5.28 5.28"/>
<path d="M122.72 90.14H121.47V88.89" stroke="white" stroke-miterlimit="10"/>
<path d="M121.47 86.625V65.11" stroke="white" stroke-miterlimit="10" stroke-dasharray="4.53 4.53"/>
<path d="M121.47 63.98V62.73H122.72" stroke="white" stroke-miterlimit="10"/>
<path d="M125.36 62.73H166.31" stroke="white" stroke-miterlimit="10" stroke-dasharray="5.28 5.28"/>
<path d="M167.63 62.73H168.88V63.98" stroke="white" stroke-miterlimit="10"/>
<path d="M168.88 66.245V87.76" stroke="white" stroke-miterlimit="10" stroke-dasharray="4.53 4.53"/>
<path d="M169.675 61.935H168.09V63.52H169.675V61.935Z" fill="#725CFF" stroke="white" stroke-miterlimit="10"/>
<path d="M169.675 89.35H168.09V90.935H169.675V89.35Z" fill="#725CFF" stroke="white" stroke-miterlimit="10"/>
<path d="M122.26 61.935H120.675V63.52H122.26V61.935Z" fill="#725CFF" stroke="white" stroke-miterlimit="10"/>
<path d="M122.26 89.35H120.675V90.935H122.26V89.35Z" fill="#725CFF" stroke="white" stroke-miterlimit="10"/>
<path d="M145.97 61.935H144.385V63.52H145.97V61.935Z" fill="#725CFF" stroke="white" stroke-miterlimit="10"/>
<path d="M145.97 89.35H144.385V90.935H145.97V89.35Z" fill="#725CFF" stroke="white" stroke-miterlimit="10"/>
<path d="M169.675 75.64H168.09V77.225H169.675V75.64Z" fill="#725CFF" stroke="white" stroke-miterlimit="10"/>
<path d="M122.26 75.64H120.675V77.225H122.26V75.64Z" fill="#725CFF" stroke="white" stroke-miterlimit="10"/>
<path opacity="0.7" d="M164.575 71.935H152.97C152.448 71.935 152.025 72.3581 152.025 72.88V75.985C152.025 76.5069 152.448 76.93 152.97 76.93H164.575C165.097 76.93 165.52 76.5069 165.52 75.985V72.88C165.52 72.3581 165.097 71.935 164.575 71.935Z" fill="white"/>
<path opacity="0.7" d="M144.575 71.935H132.97C132.448 71.935 132.025 72.3581 132.025 72.88V75.985C132.025 76.5069 132.448 76.93 132.97 76.93H144.575C145.097 76.93 145.52 76.5069 145.52 75.985V72.88C145.52 72.3581 145.097 71.935 144.575 71.935Z" fill="white"/>
<path opacity="0.7" d="M118.83 132.73H107.225C106.703 132.73 106.28 133.153 106.28 133.675V136.78C106.28 137.302 106.703 137.725 107.225 137.725H118.83C119.352 137.725 119.775 137.302 119.775 136.78V133.675C119.775 133.153 119.352 132.73 118.83 132.73Z" fill="white"/>
<path d="M180.025 62.46H184.245" stroke="white" stroke-width="1.5" stroke-linecap="round" stroke-linejoin="round"/>
<path d="M180.025 64.46H184.245" stroke="white" stroke-width="1.5" stroke-linecap="round" stroke-linejoin="round"/>
<path d="M180.025 66.46H184.245" stroke="white" stroke-width="1.5" stroke-linecap="round" stroke-linejoin="round"/>
<path opacity="0.5" d="M112.73 81.75H70.2051V124.275H112.73V81.75Z" fill="white"/>
<path d="M88.0049 85.225V121.91" stroke="#725CFF" stroke-miterlimit="10"/>
<path d="M106.345 121.91C101.48 121.91 96.8135 119.977 93.3731 116.537C89.9328 113.097 88 108.43 88 103.565C88 98.7009 89.9322 94.0361 93.3717 90.5967C96.8111 87.1572 101.476 85.225 106.34 85.225" stroke="#725CFF" stroke-miterlimit="10"/>
<path d="M107.14 84.435H105.555V86.02H107.14V84.435Z" fill="white" stroke="#725CFF" stroke-miterlimit="10"/>
<path d="M107.14 121.115H105.555V122.7H107.14V121.115Z" fill="white" stroke="#725CFF" stroke-miterlimit="10"/>
<path d="M88.7999 102.775H87.2148V104.36H88.7999V102.775Z" fill="white" stroke="#725CFF" stroke-miterlimit="10"/>
<path d="M88.4152 85.225C88.4152 85.3061 88.3912 85.3854 88.3461 85.4528C88.3011 85.5202 88.237 85.5728 88.1621 85.6038C88.0872 85.6348 88.0048 85.6429 87.9252 85.6271C87.8457 85.6113 87.7726 85.5723 87.7153 85.5149C87.658 85.4576 87.6189 85.3845 87.6031 85.305C87.5873 85.2255 87.5954 85.143 87.6264 85.0681C87.6575 84.9932 87.71 84.9291 87.7774 84.8841C87.8449 84.839 87.9241 84.815 88.0052 84.815C88.1135 84.8163 88.2171 84.8599 88.2937 84.9365C88.3703 85.0131 88.4139 85.1167 88.4152 85.225Z" fill="white" stroke="#725CFF" stroke-miterlimit="10"/>
<path d="M88.4152 121.91C88.4152 121.991 88.3913 122.07 88.3464 122.137C88.3016 122.205 88.2379 122.257 88.1632 122.288C88.0886 122.319 88.0064 122.328 87.927 122.312C87.8477 122.297 87.7746 122.258 87.7171 122.202C87.6595 122.145 87.6201 122.072 87.6037 121.993C87.5873 121.914 87.5947 121.832 87.625 121.757C87.6553 121.682 87.707 121.617 87.7738 121.572C87.8406 121.526 87.9193 121.501 88.0002 121.5C88.0545 121.499 88.1083 121.509 88.1587 121.53C88.209 121.55 88.2548 121.58 88.2934 121.618C88.332 121.656 88.3626 121.702 88.3835 121.752C88.4044 121.802 88.4152 121.856 88.4152 121.91Z" fill="white" stroke="#725CFF" stroke-miterlimit="10"/>
<path opacity="0.7" d="M158.465 133.335H145.59C144.604 133.335 143.657 132.943 142.96 132.245C142.262 131.548 141.87 130.602 141.87 129.615C141.87 128.628 142.262 127.682 142.96 126.985C143.657 126.287 144.604 125.895 145.59 125.895H158.465C159.452 125.895 160.398 126.287 161.096 126.985C161.793 127.682 162.185 128.628 162.185 129.615C162.185 130.602 161.793 131.548 161.096 132.245C160.398 132.943 159.452 133.335 158.465 133.335Z" fill="white"/>
<path opacity="0.7" d="M169.775 101.61H130C129.784 101.61 129.577 101.524 129.424 101.371C129.271 101.218 129.185 101.011 129.185 100.795C129.189 100.582 129.277 100.379 129.429 100.23C129.582 100.081 129.787 99.9986 130 100H169.77C169.877 99.9993 169.983 100.02 170.082 100.06C170.18 100.101 170.27 100.16 170.346 100.235C170.422 100.311 170.482 100.4 170.523 100.499C170.564 100.597 170.585 100.703 170.585 100.81C170.581 101.023 170.494 101.225 170.343 101.375C170.192 101.524 169.988 101.609 169.775 101.61Z" fill="white"/>
<path opacity="0.7" d="M169.775 107.545H130C129.893 107.546 129.787 107.525 129.689 107.485C129.59 107.444 129.5 107.385 129.424 107.31C129.348 107.234 129.288 107.145 129.247 107.046C129.206 106.948 129.185 106.842 129.185 106.735C129.185 106.519 129.271 106.312 129.424 106.159C129.577 106.006 129.784 105.92 130 105.92H169.77C169.986 105.92 170.194 106.006 170.346 106.159C170.499 106.312 170.585 106.519 170.585 106.735C170.585 106.95 170.5 107.156 170.348 107.308C170.196 107.46 169.99 107.545 169.775 107.545Z" fill="white"/>
<path opacity="0.7" d="M169.775 113.5H145C144.785 113.5 144.578 113.415 144.426 113.263C144.273 113.111 144.186 112.905 144.185 112.69C144.185 112.474 144.271 112.267 144.424 112.114C144.577 111.961 144.784 111.875 145 111.875H169.77C169.986 111.875 170.194 111.961 170.346 112.114C170.499 112.267 170.585 112.474 170.585 112.69C170.584 112.904 170.498 113.11 170.346 113.261C170.195 113.413 169.989 113.499 169.775 113.5Z" fill="white"/>
<path opacity="0.4" d="M68.4252 61.475H65.6152V64.285H68.4252V61.475Z" fill="black"/>
<path opacity="0.4" d="M73.1652 61.475H71.7952C71.3976 61.475 71.0752 61.7974 71.0752 62.195V63.565C71.0752 63.9626 71.3976 64.285 71.7952 64.285H73.1652C73.5628 64.285 73.8852 63.9626 73.8852 63.565V62.195C73.8852 61.7974 73.5628 61.475 73.1652 61.475Z" fill="black"/>
<path opacity="0.4" d="M78.065 61.475H77.825C77.1153 61.475 76.54 62.0503 76.54 62.76V63C76.54 63.7097 77.1153 64.285 77.825 64.285H78.065C78.7747 64.285 79.35 63.7097 79.35 63V62.76C79.35 62.0503 78.7747 61.475 78.065 61.475Z" fill="black"/>
<path opacity="0.9" d="M74.2249 130.75V129.655L73.6649 129.605C73.5849 129.25 73.4427 128.911 73.2449 128.605L73.6049 128.17L72.8299 127.395L72.3949 127.755C72.0889 127.557 71.7503 127.415 71.3949 127.335L71.3449 126.775H70.2499L70.1949 127.335C69.8395 127.415 69.501 127.558 69.1949 127.755L68.7599 127.395L67.9849 128.17L68.3449 128.605C68.143 128.909 68.0005 129.248 67.9249 129.605L67.3599 129.655V130.75L67.9249 130.805C68.0008 131.162 68.1433 131.501 68.3449 131.805L67.9849 132.245L68.7599 133.015L69.1949 132.655C69.4989 132.857 69.8381 132.999 70.1949 133.075L70.2499 133.64H71.3449L71.3949 133.075C71.7517 132.999 72.091 132.857 72.3949 132.655L72.8299 133.015L73.6049 132.245L73.2449 131.805C73.4445 131.5 73.5868 131.161 73.6649 130.805L74.2249 130.75ZM70.7799 131.685C70.4832 131.685 70.1932 131.597 69.9465 131.432C69.6998 131.267 69.5076 131.033 69.394 130.759C69.2805 130.485 69.2508 130.183 69.3087 129.892C69.3666 129.601 69.5094 129.334 69.7192 129.124C69.929 128.915 70.1963 128.772 70.4872 128.714C70.7782 128.656 71.0798 128.686 71.3539 128.799C71.628 128.913 71.8622 129.105 72.0271 129.352C72.1919 129.598 72.2799 129.888 72.2799 130.185C72.2799 130.583 72.1218 130.964 71.8405 131.246C71.5592 131.527 71.1777 131.685 70.7799 131.685Z" fill="white"/>
<path opacity="0.6" d="M78.6651 133.84V133L78.2251 132.955C78.1654 132.673 78.0535 132.405 77.8951 132.165L78.1751 131.82L77.5701 131.215L77.2301 131.5C76.9879 131.342 76.7183 131.23 76.4351 131.17L76.3951 130.725H75.5351L75.4951 131.17C75.2119 131.23 74.9423 131.342 74.7001 131.5L74.3601 131.215L73.7501 131.82L74.0351 132.165C73.8768 132.405 73.7648 132.673 73.7051 132.955L73.2651 133V133.855L73.7051 133.9C73.7648 134.182 73.8768 134.45 74.0351 134.69L73.7501 135.035L74.3601 135.64L74.7001 135.355C74.9423 135.513 75.2119 135.625 75.4951 135.685L75.5351 136.125H76.3951L76.4351 135.685C76.7183 135.625 76.9879 135.513 77.2301 135.355L77.5701 135.64L78.1751 135.035L77.8951 134.69C78.0535 134.45 78.1654 134.182 78.2251 133.9L78.6651 133.84ZM75.9651 134.575C75.7345 134.576 75.5088 134.509 75.3165 134.381C75.1243 134.254 74.9742 134.072 74.8853 133.859C74.7963 133.647 74.7725 133.412 74.8169 133.186C74.8613 132.959 74.9719 132.751 75.1346 132.588C75.2973 132.425 75.5049 132.313 75.731 132.268C75.9571 132.222 76.1916 132.245 76.4048 132.333C76.618 132.421 76.8002 132.571 76.9284 132.762C77.0567 132.954 77.1251 133.179 77.1251 133.41C77.1258 133.563 77.0963 133.714 77.0383 133.855C76.9803 133.997 76.8949 134.125 76.7872 134.233C76.6794 134.342 76.5513 134.428 76.4102 134.486C76.2691 134.545 76.1179 134.575 75.9651 134.575Z" fill="white"/>
<path opacity="0.4" d="M74.2252 136.275V135.555L73.8552 135.52C73.8056 135.283 73.7123 135.058 73.5802 134.855L73.8202 134.57L73.3202 134.07L73.0302 134.305C72.8275 134.173 72.602 134.08 72.3652 134.03L72.3302 133.66H71.6002L71.5652 134.03C71.3284 134.08 71.1029 134.173 70.9002 134.305L70.6102 134.07L70.1102 134.57L70.3502 134.855C70.2181 135.058 70.1248 135.283 70.0752 135.52L69.7002 135.555V136.275L70.0752 136.31C70.1239 136.549 70.2172 136.776 70.3502 136.98L70.1102 137.265L70.6102 137.765L70.9002 137.525C71.1015 137.661 71.3274 137.756 71.5652 137.805L71.6002 138.175H72.3202L72.3552 137.805C72.593 137.756 72.8189 137.661 73.0202 137.525L73.3102 137.765L73.8102 137.265L73.5702 136.98C73.7032 136.776 73.7965 136.549 73.8452 136.31L74.2252 136.275ZM71.9602 136.89C71.7685 136.885 71.5825 136.824 71.4255 136.714C71.2685 136.604 71.1474 136.45 71.0774 136.271C71.0075 136.093 70.9917 135.897 71.0321 135.71C71.0725 135.522 71.1673 135.351 71.3046 135.217C71.4418 135.083 71.6156 134.993 71.804 134.957C71.9924 134.922 72.1872 134.942 72.3639 135.017C72.5406 135.091 72.6914 135.216 72.7975 135.376C72.9035 135.536 72.9601 135.723 72.9602 135.915C72.9602 136.045 72.9342 136.174 72.8837 136.294C72.8331 136.414 72.759 136.523 72.6658 136.613C72.5726 136.704 72.4622 136.776 72.341 136.823C72.2198 136.871 72.0903 136.893 71.9602 136.89Z" fill="white"/>
<path d="M168.59 62.445L170.71 68.115L174.255 64.565L168.59 62.445Z" fill="#725CFF"/>
<path d="M172.004 65.0668L171.212 65.8587L172.97 67.6159L173.762 66.824L172.004 65.0668Z" fill="#725CFF"/>
<path opacity="0.4" d="M174.255 64.565L168.59 62.445L170.71 68.115L172.09 66.735L172.965 67.615L173.755 66.825L172.88 65.945L174.255 64.565Z" fill="white"/>
<path d="M81.73 82.71L87.065 84.71L84.27 81.915C84.1666 81.9745 84.0465 81.9984 83.9282 81.983C83.8099 81.9677 83.6998 81.9139 83.615 81.83C83.5116 81.7266 83.4535 81.5863 83.4535 81.44C83.4535 81.2937 83.5116 81.1534 83.615 81.05C83.7185 80.9466 83.8587 80.8885 84.005 80.8885C84.1513 80.8885 84.2916 80.9466 84.395 81.05C84.4789 81.1348 84.5327 81.2448 84.548 81.3632C84.5634 81.4815 84.5395 81.6016 84.48 81.705L87.275 84.5L85.275 79.165L83.505 79.555L83.44 78.92L83.105 78.585L81.145 80.545L81.48 80.88L82.12 80.945L81.73 82.71Z" fill="#263238"/>
<path opacity="0.2" d="M81.73 82.71L87.065 84.71L84.27 81.915C84.1666 81.9745 84.0465 81.9984 83.9282 81.983C83.8099 81.9677 83.6998 81.9139 83.615 81.83C83.5116 81.7266 83.4535 81.5863 83.4535 81.44C83.4535 81.2937 83.5116 81.1534 83.615 81.05C83.7185 80.9466 83.8587 80.8885 84.005 80.8885C84.1513 80.8885 84.2916 80.9466 84.395 81.05C84.4789 81.1348 84.5327 81.2448 84.548 81.3632C84.5634 81.4815 84.5395 81.6016 84.48 81.705L87.275 84.5L85.275 79.165L83.505 79.555L83.44 78.92L83.105 78.585L81.145 80.545L81.48 80.88L82.12 80.945L81.73 82.71Z" fill="white"/>
<g opacity="0.1">
<path d="M80.1499 57.92L61.3599 128.13V57.92H80.1499Z" fill="white"/>
<path d="M101.355 57.92L78.8401 142.045H63.3301L85.8401 57.92H101.355Z" fill="white"/>
<path d="M123.905 57.92L101.39 142.045H94.375L116.89 57.92H123.905Z" fill="white"/>
<path d="M144.67 57.92L122.155 142.045H119.645L142.16 57.92H144.67Z" fill="white"/>
</g>
<path d="M220.95 76.5C222.725 78.545 231.755 95.94 230.01 100C228.265 104.06 213.795 99.38 213.795 99.38L214.66 93.645C214.66 93.645 220.28 93.845 220.82 93.31C221.36 92.775 213.215 84.645 213.215 84.645L220.95 76.5Z" fill="#263238"/>
<g opacity="0.2">
<path d="M230 100C229.786 100.47 229.412 100.849 228.945 101.07L228.655 101.2H228.615C228.526 101.238 228.434 101.269 228.34 101.295C227.934 101.425 227.515 101.513 227.09 101.555L226.725 101.59C226.545 101.59 226.365 101.615 226.18 101.62H225.68C220.83 101.62 213.775 99.345 213.775 99.345L214.64 93.61C214.64 93.61 220.26 93.81 220.8 93.275C220.93 93.145 220.545 92.565 219.89 91.775C218.3 89.82 215.115 86.565 213.8 85.235L213.205 84.635L220.95 76.5C222.725 78.525 231.755 95.92 230 100Z" fill="white"/>
</g>
<path opacity="0.2" d="M228.955 101.055L228.665 101.185H228.625C228.536 101.223 228.444 101.254 228.35 101.28C227.944 101.41 227.525 101.498 227.1 101.54L226.735 101.575C226.555 101.575 226.375 101.6 226.19 101.605H225.69C220.84 101.605 213.785 99.33 213.785 99.33L214.65 93.595C214.65 93.595 220.98 94.13 221.52 93.595C221.62 93.385 220.92 92.675 219.885 91.77C218.295 89.815 215.11 86.56 213.795 85.23L217.455 81.32L220.24 81.02C220.24 81.02 226.405 91 228.955 101.055Z" fill="black"/>
<path d="M202.705 75.91C201.705 76.635 201.205 77.665 201.605 78.21L228.025 114.635C228.42 115.18 229.555 115.03 230.555 114.305C231.555 113.58 232.055 112.545 231.655 112.005L205.235 75.575C204.84 75.035 203.71 75.18 202.705 75.91Z" fill="#263238"/>
<path opacity="0.7" d="M205.235 75.575L231.655 112C232.05 112.54 231.555 113.57 230.555 114.3C229.555 115.03 228.42 115.17 228.03 114.63L201.61 78.2C201.509 78.0102 201.465 77.7955 201.481 77.5812C201.498 77.3668 201.576 77.1618 201.705 76.99C201.84 76.7492 202.008 76.5286 202.205 76.335C202.358 76.1767 202.526 76.0328 202.705 75.905C203.71 75.185 204.84 75.035 205.235 75.575Z" fill="white"/>
<path opacity="0.3" d="M231.655 112C232.05 112.54 231.555 113.57 230.555 114.3C229.555 115.03 228.42 115.17 228.03 114.63C227.81 114.33 228.355 113.875 228.675 113.22L201.705 77C201.84 76.7592 202.008 76.5386 202.205 76.345L228.63 112.775C228.785 112.617 228.952 112.472 229.13 112.34C230.13 111.61 231.26 111.46 231.655 112Z" fill="black"/>
<path d="M199.435 74.9C198.59 75.8 198.3 76.9 198.79 77.365L231.64 108.12C232.14 108.58 233.215 108.22 234.06 107.315C234.905 106.41 235.195 105.315 234.705 104.845L201.855 74.09C201.365 73.635 200.28 74 199.435 74.9Z" fill="#725CFF"/>
<path opacity="0.7" d="M201.855 74.095L234.705 104.85C235.205 105.305 234.905 106.41 234.06 107.315C233.215 108.22 232.13 108.575 231.64 108.12L198.79 77.365C198.656 77.1964 198.572 76.9935 198.549 76.7794C198.525 76.5654 198.562 76.349 198.655 76.155C198.745 75.8929 198.869 75.644 199.025 75.415C199.149 75.238 199.286 75.0709 199.435 74.915C200.28 74 201.365 73.635 201.855 74.095Z" fill="white"/>
<path opacity="0.3" d="M234.705 104.85C235.205 105.305 234.905 106.41 234.06 107.315C233.215 108.22 232.13 108.575 231.64 108.12C231.37 107.865 231.82 107.32 232.01 106.62L198.655 76.165C198.745 75.9029 198.869 75.654 199.025 75.425L231.88 106.185C232.001 106.007 232.137 105.84 232.285 105.685C233.13 104.75 234.215 104.39 234.705 104.85Z" fill="black"/>
<path d="M207.33 173.05L204.83 173.09C202.285 161.135 200.485 146.34 199.365 135.18C199.19 133.43 199.03 131.775 198.865 130.23C198.8 129.495 198.735 128.79 198.675 128.11C198.375 124.755 198.175 122.11 198.045 120.45C197.955 119.25 197.91 118.59 197.91 118.59H207L206.915 120.895L206.615 128.5L206.585 129.37L206.395 134.395L206.08 142.95C209.185 155 207.33 173.05 207.33 173.05Z" fill="#EBB376"/>
<path d="M227.63 172.41L225.165 172.875C220.23 160.54 215.595 144.745 212.58 133.71C212.115 132 211.685 130.4 211.3 128.95C211.3 128.875 211.265 128.805 211.245 128.735C210.485 125.855 209.9 123.56 209.535 122.105L209.1 120.34L218 118.8L218.5 122.55L219.245 128.05L219.39 129.13L219.89 132.885L221.245 142.955C226.385 154.305 227.63 172.41 227.63 172.41Z" fill="#EBB376"/>
<path opacity="0.2" d="M219.27 128.06L211.3 128.95C211.3 128.875 211.265 128.805 211.245 128.735C210.485 125.855 209.9 123.56 209.535 122.105L218.535 122.55L219.27 128.06Z" fill="black"/>
<path opacity="0.2" d="M206.895 120.895L206.615 128.5L206.585 129.37L198.885 130.225C198.82 129.49 198.755 128.785 198.695 128.105C198.395 124.75 198.195 122.105 198.065 120.445L206.895 120.895Z" fill="black"/>
<path d="M199.935 181.36C200.401 180.982 200.931 180.69 201.5 180.5C201.5 180.5 203.205 178.81 204.03 173.72L206.26 173.135C206.639 173.045 207.037 173.072 207.4 173.214C207.763 173.357 208.073 173.606 208.29 173.93C208.352 174.021 208.399 174.12 208.43 174.225C208.545 174.771 208.626 175.324 208.67 175.88C208.795 177.741 208.807 179.608 208.705 181.47H208.3L208.14 177.97C208.08 176.775 207.165 178.175 206.905 179.47C206.645 180.765 206.09 182.115 203.48 182.18C200.43 182.225 199.165 182.105 199.935 181.36Z" fill="#263238"/>
<path d="M208.37 174C208.515 172.81 208.56 170.74 208.56 170.74L203.6 171.29C203.6 171.29 204.2 173.645 203.705 175.415C206.205 174.73 208.37 174 208.37 174Z" fill="#263238"/>
<path d="M220.115 181.36C220.581 180.984 221.111 180.694 221.68 180.505C221.68 180.505 223.385 178.815 224.205 173.725L226.44 173.14C226.819 173.05 227.217 173.077 227.58 173.219C227.943 173.362 228.253 173.611 228.47 173.935C228.532 174.026 228.579 174.125 228.61 174.23C228.725 174.776 228.806 175.329 228.85 175.885C228.974 177.746 228.984 179.613 228.88 181.475H228.5L228.34 177.975C228.28 176.78 227.365 178.18 227.105 179.475C226.845 180.77 226.29 182.12 223.675 182.185C220.61 182.225 219.345 182.105 220.115 181.36Z" fill="#263238"/>
<path d="M228.545 174C228.695 172.81 228.74 170.74 228.74 170.74L223.78 171.29C223.78 171.29 224.38 173.645 223.885 175.415C226.385 174.73 228.545 174 228.545 174Z" fill="#263238"/>
<path d="M220.13 125.605L210.695 126.81L210.33 126.855L208.39 119.745L207.89 127.365L197.78 126.835C193.28 100.4 200.975 94.155 200.975 94.155L214.69 96.915C220.9 107.475 219.425 119.745 219.425 119.745L220.13 125.605Z" fill="#725CFF"/>
<path d="M213.915 67.5C213.879 67.5343 213.838 67.5645 213.795 67.59C213.225 68.025 212.574 68.3428 211.88 68.525C209.855 68.995 208.47 68.715 207.565 67.8C206.3 66.425 205.985 63.99 206.165 61.05C206.197 59.8801 206.413 58.7225 206.805 57.62C206.805 57.62 206.805 57.575 206.805 57.565C206.805 57.555 206.835 57.48 206.855 57.44C207.103 56.8182 207.503 56.2685 208.019 55.8413C208.534 55.4141 209.148 55.1231 209.805 54.995C210.375 54.8676 210.957 54.8023 211.54 54.8C217.275 54.755 218.305 64.245 213.915 67.5Z" fill="#EBB376"/>
<path opacity="0.2" d="M213.795 67.605C213.22 68.0147 212.569 68.3054 211.88 68.46C209.855 68.93 208.47 68.585 207.565 67.655C208.777 67.9547 210.054 67.8493 211.2 67.355C211.624 67.1988 212.077 67.1401 212.527 67.1834C212.976 67.2267 213.41 67.3708 213.795 67.605Z" fill="black"/>
<path d="M214.375 72.78C214.73 74.41 212.615 75.075 212.615 75.075C209.16 73.575 208.52 71.76 208.52 71.76C211.405 70.26 210.57 66.005 210.57 66.005L211.155 66.295L215.27 67.1C215.27 67.1 214.13 69.29 213.98 69.79C213.2 72.415 214.375 72.78 214.375 72.78Z" fill="#EBB376"/>
<path d="M206.8 57.595C206.8 57.595 206.485 61.595 210.3 63.34C210.3 63.34 211.935 67.515 214.34 67.57C217.625 67.65 220.515 62.985 219.38 58.23C217.895 52.06 208.55 51.56 206.8 57.595Z" fill="#D2C976"/>
<path d="M208.36 62.185C208.36 61.56 208.86 60.505 209.86 60.65C210.86 60.795 211.43 63.285 208.95 63.84C208.575 63.92 208.36 63.5 208.36 62.185Z" fill="#EBB376"/>
<path d="M213.795 53.325C213.795 53.325 209.965 52.355 207.845 53.9C205.37 55.7 204.43 57.56 207.345 60.45C207.345 60.45 213.78 58.365 215.92 58.805C217.171 59.0573 218.399 59.4135 219.59 59.87C220.055 55.62 215.935 52.455 213.795 53.325Z" fill="#D2C976"/>
<path opacity="0.2" d="M210.695 126.81L210.33 126.855L208.39 119.745C208.39 119.745 212.55 112.64 211.25 108.94C211.435 109.2 215.915 115.845 210.695 126.81Z" fill="black"/>
<path d="M202.905 72.42C202.905 72.42 207.48 70.79 214.375 72.78C221.27 74.77 221.53 77.705 221.53 77.705C221.53 77.705 217.16 87.61 216.47 98.825L198.5 98.155C198.5 98.155 196.355 82.325 202.905 72.42Z" fill="#263238"/>
<path opacity="0.2" d="M221.53 77.705C221.53 77.705 217.16 87.61 216.47 98.825L198.5 98.155C198.285 96.3295 198.175 94.4931 198.17 92.655C198.135 89.9646 198.302 87.2753 198.67 84.61C199.27 80.46 200.505 76.03 202.905 72.4C202.905 72.4 207.48 70.77 214.375 72.76C221.27 74.75 221.53 77.705 221.53 77.705Z" fill="white"/>
<path opacity="0.2" d="M202.655 85.305C202.655 85.305 201.91 89.865 198.155 92.675C198.12 89.9846 198.287 87.2953 198.655 84.63L202.655 85.305Z" fill="black"/>
<path d="M182.8 72.105L180.535 68.745C180.535 68.745 180.19 67.285 179.75 66.955C179.31 66.625 174.96 64.77 174.435 64.78C173.91 64.79 173.935 68.17 174.435 68.745C174.935 69.32 177.705 70.55 178.435 70.675C179.165 70.8 178.805 70.675 178.805 70.675L180.805 74.675L182.8 72.105Z" fill="#EBB376"/>
<path d="M202.905 72.42C198.053 74.4522 193.371 76.8699 188.905 79.65L181.59 69.65C181.59 69.65 179.62 70.26 178.89 73.69C178.89 73.69 182.645 87.995 187.525 89.415C192.405 90.835 202.665 85.28 202.665 85.28C202.665 85.28 205.635 77.85 202.905 72.42Z" fill="#263238"/>
<path opacity="0.2" d="M202.905 72.42C198.053 74.4522 193.371 76.8699 188.905 79.65L181.59 69.65C181.59 69.65 179.62 70.26 178.89 73.69C178.89 73.69 182.645 87.995 187.525 89.415C192.405 90.835 202.665 85.28 202.665 85.28C202.665 85.28 205.635 77.85 202.905 72.42Z" fill="white"/>
<path d="M207.53 71.79C207.53 71.79 209.125 83.21 214.18 83.67C219.235 84.13 221.5 75.67 220.645 74.67C219.79 73.67 213.275 71.715 207.53 71.79Z" fill="#263238"/>
<path opacity="0.3" d="M207.53 71.79C207.53 71.79 209.125 83.21 214.18 83.67C219.235 84.13 221.5 75.67 220.645 74.67C219.79 73.67 213.275 71.715 207.53 71.79Z" fill="white"/>
<path d="M207.622 64.2664C207.622 64.2664 208.714 70.7444 207 76.2709C207 76.2709 216.936 80.6851 220.392 78.2856C223.847 75.8861 220.681 67.8342 220.534 63.1891C220.386 58.544 218.814 51.6814 213.557 53.2204C208.299 54.7594 207.622 64.2664 207.622 64.2664Z" fill="#D2C976"/>
<path d="M60.9028 117.741L37.3076 114L35 128.553L58.5952 132.295L60.9028 117.741Z" fill="#725CFF"/>
<path d="M45.6534 119.541L40.8584 122.026L44.6484 125.871" stroke="white" stroke-width="2" stroke-linecap="round" stroke-linejoin="round"/>
<path d="M50.2334 126.756L55.0234 124.271L51.2384 120.426" stroke="white" stroke-width="2" stroke-linecap="round" stroke-linejoin="round"/>
<path d="M46.3184 126.136L49.5684 120.161" stroke="white" stroke-width="2" stroke-linecap="round" stroke-linejoin="round"/>
</svg>
