<svg width="396" height="701" viewBox="0 0 396 701" fill="none" xmlns="http://www.w3.org/2000/svg">
<g clip-path="url(#clip0_57323_15625)">
<rect width="396" height="701" fill="white"/>
<g filter="url(#filter0_dd_57323_15625)">
<rect x="19" y="19" width="358" height="663" rx="18" fill="white"/>
<rect x="21.5" y="21.5" width="353" height="658" rx="15.5" stroke="#272727" stroke-opacity="0.5" stroke-width="5"/>
<path d="M53 117.5H68M53 117.5L59.25 110.5M53 117.5L59.25 124.5" stroke="black" stroke-width="2" stroke-linecap="round" stroke-linejoin="round"/>
<path d="M96.3082 111.636L99.2965 121.03H99.4112L102.406 111.636H105.303L101.041 124H97.6726L93.4045 111.636H96.3082ZM109.887 124.181C108.949 124.181 108.138 123.982 107.454 123.583C106.774 123.181 106.249 122.622 105.878 121.905C105.508 121.185 105.323 120.35 105.323 119.4C105.323 118.442 105.508 117.605 105.878 116.888C106.249 116.168 106.774 115.609 107.454 115.21C108.138 114.808 108.949 114.607 109.887 114.607C110.825 114.607 111.633 114.808 112.314 115.21C112.998 115.609 113.525 116.168 113.895 116.888C114.266 117.605 114.451 118.442 114.451 119.4C114.451 120.35 114.266 121.185 113.895 121.905C113.525 122.622 112.998 123.181 112.314 123.583C111.633 123.982 110.825 124.181 109.887 124.181ZM109.899 122.189C110.325 122.189 110.682 122.068 110.967 121.827C111.253 121.581 111.468 121.247 111.613 120.825C111.762 120.402 111.837 119.921 111.837 119.382C111.837 118.842 111.762 118.362 111.613 117.939C111.468 117.516 111.253 117.182 110.967 116.937C110.682 116.691 110.325 116.569 109.899 116.569C109.468 116.569 109.106 116.691 108.812 116.937C108.522 117.182 108.303 117.516 108.154 117.939C108.009 118.362 107.937 118.842 107.937 119.382C107.937 119.921 108.009 120.402 108.154 120.825C108.303 121.247 108.522 121.581 108.812 121.827C109.106 122.068 109.468 122.189 109.899 122.189ZM117.94 114.727L119.642 117.969L121.387 114.727H124.025L121.339 119.364L124.098 124H121.472L119.642 120.794L117.843 124H115.187L117.94 119.364L115.284 114.727H117.94ZM127.702 114.727L129.404 117.969L131.149 114.727H133.787L131.101 119.364L133.859 124H131.233L129.404 120.794L127.605 124H124.949L127.702 119.364L125.046 114.727H127.702ZM142.396 124V125.95H134.276V124H142.396ZM143.464 124V111.636H146.078V116.738H151.385V111.636H153.993V124H151.385V118.893H146.078V124H143.464ZM158.931 124L155.393 111.636H158.249L160.295 120.227H160.398L162.656 111.636H165.101L167.352 120.245H167.461L169.508 111.636H172.363L168.825 124H166.278L163.923 115.917H163.827L161.478 124H158.931ZM180.795 124V125.95H172.675V124H180.795ZM185.327 111.636V124H182.713V114.118H182.641L179.81 115.892V113.574L182.87 111.636H185.327ZM193.645 111.636V124H191.031V114.118H190.958L188.127 115.892V113.574L191.188 111.636H193.645Z" fill="black"/>
<g filter="url(#filter1_d_57323_15625)">
<rect x="40" y="152" width="307" height="67" rx="20" fill="#52A451"/>
<path d="M163.994 179.636V192H162.497V179.636H163.994ZM168.228 186.422V192H166.803V182.727H168.179V184.176H168.3C168.517 183.705 168.848 183.327 169.29 183.041C169.733 182.751 170.304 182.607 171.005 182.607C171.633 182.607 172.182 182.735 172.653 182.993C173.124 183.246 173.49 183.633 173.752 184.152C174.013 184.667 174.144 185.319 174.144 186.108V192H172.719V186.205C172.719 185.476 172.53 184.909 172.152 184.502C171.773 184.092 171.254 183.886 170.594 183.886C170.139 183.886 169.733 183.985 169.375 184.182C169.021 184.379 168.741 184.667 168.536 185.045C168.33 185.424 168.228 185.883 168.228 186.422ZM176.747 192V182.727H178.172V192H176.747ZM177.472 181.182C177.194 181.182 176.955 181.087 176.753 180.898C176.556 180.709 176.458 180.482 176.458 180.216C176.458 179.95 176.556 179.723 176.753 179.534C176.955 179.345 177.194 179.25 177.472 179.25C177.749 179.25 177.987 179.345 178.184 179.534C178.385 179.723 178.486 179.95 178.486 180.216C178.486 180.482 178.385 180.709 178.184 180.898C177.987 181.087 177.749 181.182 177.472 181.182ZM184.814 182.727V183.935H180.009V182.727H184.814ZM181.409 180.506H182.834V189.344C182.834 189.746 182.892 190.048 183.009 190.249C183.13 190.446 183.283 190.579 183.468 190.648C183.657 190.712 183.856 190.744 184.066 190.744C184.223 190.744 184.351 190.736 184.452 190.72C184.553 190.7 184.633 190.684 184.693 190.672L184.983 191.952C184.887 191.988 184.752 192.024 184.579 192.06C184.406 192.101 184.186 192.121 183.921 192.121C183.518 192.121 183.124 192.034 182.737 191.861C182.355 191.688 182.037 191.424 181.784 191.07C181.534 190.716 181.409 190.269 181.409 189.73V180.506ZM186.957 192V182.727H188.382V192H186.957ZM187.682 181.182C187.404 181.182 187.165 181.087 186.963 180.898C186.766 180.709 186.668 180.482 186.668 180.216C186.668 179.95 186.766 179.723 186.963 179.534C187.165 179.345 187.404 179.25 187.682 179.25C187.959 179.25 188.197 179.345 188.394 179.534C188.595 179.723 188.696 179.95 188.696 180.216C188.696 180.482 188.595 180.709 188.394 180.898C188.197 181.087 187.959 181.182 187.682 181.182ZM193.72 192.217C193.133 192.217 192.599 192.107 192.12 191.885C191.641 191.66 191.261 191.336 190.979 190.913C190.698 190.487 190.557 189.972 190.557 189.368C190.557 188.837 190.661 188.406 190.871 188.076C191.08 187.742 191.36 187.48 191.71 187.291C192.06 187.102 192.446 186.961 192.869 186.869C193.296 186.772 193.724 186.696 194.155 186.639C194.718 186.567 195.175 186.512 195.525 186.476C195.879 186.436 196.137 186.37 196.298 186.277C196.463 186.184 196.545 186.023 196.545 185.794V185.746C196.545 185.15 196.382 184.687 196.056 184.357C195.734 184.027 195.246 183.862 194.589 183.862C193.909 183.862 193.376 184.011 192.99 184.309C192.603 184.607 192.332 184.925 192.175 185.263L190.822 184.78C191.064 184.216 191.386 183.778 191.788 183.464C192.195 183.146 192.638 182.924 193.116 182.8C193.599 182.671 194.074 182.607 194.541 182.607C194.839 182.607 195.181 182.643 195.567 182.715C195.958 182.784 196.334 182.926 196.696 183.144C197.063 183.361 197.366 183.689 197.608 184.128C197.849 184.567 197.97 185.154 197.97 185.891V192H196.545V190.744H196.473C196.376 190.946 196.215 191.161 195.99 191.39C195.765 191.62 195.465 191.815 195.091 191.976C194.716 192.137 194.259 192.217 193.72 192.217ZM193.938 190.938C194.501 190.938 194.976 190.827 195.362 190.605C195.753 190.384 196.046 190.098 196.244 189.748C196.445 189.398 196.545 189.03 196.545 188.643V187.339C196.485 187.412 196.352 187.478 196.147 187.539C195.946 187.595 195.712 187.645 195.447 187.69C195.185 187.73 194.93 187.766 194.68 187.798C194.435 187.826 194.235 187.851 194.082 187.871C193.712 187.919 193.366 187.998 193.044 188.106C192.726 188.211 192.469 188.37 192.271 188.583C192.078 188.792 191.982 189.078 191.982 189.44C191.982 189.935 192.165 190.31 192.531 190.563C192.901 190.813 193.37 190.938 193.938 190.938ZM201.995 179.636V192H200.571V179.636H201.995ZM204.605 192V182.727H206.029V192H204.605ZM205.329 181.182C205.051 181.182 204.812 181.087 204.611 180.898C204.414 180.709 204.315 180.482 204.315 180.216C204.315 179.95 204.414 179.723 204.611 179.534C204.812 179.345 205.051 179.25 205.329 179.25C205.607 179.25 205.844 179.345 206.042 179.534C206.243 179.723 206.343 179.95 206.343 180.216C206.343 180.482 206.243 180.709 206.042 180.898C205.844 181.087 205.607 181.182 205.329 181.182ZM208.373 192V190.913L213.638 184.152V184.055H208.542V182.727H215.473V183.862L210.353 190.575V190.672H215.642V192H208.373ZM221.458 192.193C220.565 192.193 219.794 191.996 219.146 191.602C218.502 191.203 218.005 190.648 217.655 189.935C217.309 189.219 217.136 188.386 217.136 187.436C217.136 186.486 217.309 185.649 217.655 184.925C218.005 184.196 218.492 183.629 219.116 183.222C219.744 182.812 220.476 182.607 221.313 182.607C221.796 182.607 222.273 182.687 222.744 182.848C223.215 183.009 223.644 183.271 224.03 183.633C224.416 183.991 224.724 184.466 224.954 185.058C225.183 185.649 225.298 186.378 225.298 187.243V187.847H218.15V186.615H223.849C223.849 186.092 223.744 185.625 223.535 185.214C223.33 184.804 223.036 184.48 222.654 184.243C222.275 184.005 221.829 183.886 221.313 183.886C220.746 183.886 220.255 184.027 219.84 184.309C219.43 184.587 219.114 184.949 218.893 185.396C218.671 185.842 218.561 186.321 218.561 186.832V187.653C218.561 188.354 218.681 188.947 218.923 189.434C219.168 189.917 219.508 190.286 219.943 190.539C220.378 190.789 220.883 190.913 221.458 190.913C221.833 190.913 222.171 190.861 222.473 190.756C222.778 190.648 223.042 190.487 223.263 190.273C223.485 190.056 223.656 189.786 223.777 189.464L225.153 189.851C225.008 190.318 224.765 190.728 224.422 191.082C224.08 191.433 223.658 191.706 223.155 191.903C222.652 192.097 222.086 192.193 221.458 192.193Z" fill="white"/>
</g>
<g filter="url(#filter2_d_57323_15625)">
<rect x="40" y="234" width="150" height="58" rx="20" fill="#CB4549"/>
<path d="M103 274V259.103H106.13V254.448C106.13 250.335 109.867 247 114.478 247H115.522C120.132 247 123.87 250.335 123.87 254.448V259.103H127V274H103ZM114.211 266.353L113.435 271.207H116.565L115.788 266.353C116.549 266.076 117.087 265.41 117.087 264.631C117.087 263.603 116.152 262.769 115 262.769C113.847 262.769 112.913 263.603 112.913 264.631C112.913 265.41 113.45 266.076 114.211 266.353ZM120.739 254.914C120.739 252.085 118.169 249.793 115 249.793C111.83 249.793 109.261 252.085 109.261 254.914V259.103H120.739V254.914Z" fill="white"/>
</g>
<g filter="url(#filter3_d_57323_15625)">
<rect x="201" y="234" width="150" height="58" rx="20" fill="#52A551"/>
<path d="M288.188 259.103V254.914C288.188 252.085 285.878 249.793 283.031 249.793C280.183 249.793 277.875 252.085 277.875 254.914V259.17H282.562V274H261V259.103H275.062V254.448C275.062 250.335 278.42 247 282.562 247H283.5C287.642 247 291 250.335 291 254.448V259.103H288.188ZM271.781 262.77C270.745 262.77 269.906 263.604 269.906 264.632C269.906 265.411 270.389 266.077 271.073 266.354L270.375 271.207H273.188L272.489 266.353C273.172 266.076 273.656 265.41 273.656 264.631C273.656 263.603 272.816 262.77 271.781 262.77Z" fill="white"/>
</g>
<rect x="40" y="318" width="307" height="43" rx="20" fill="#296082"/>
<path d="M64.0625 344H61.1449V334.545H64.1918C65.1089 334.545 65.8937 334.735 66.5462 335.113C67.1986 335.489 67.6987 336.029 68.0465 336.734C68.3943 337.435 68.5682 338.276 68.5682 339.254C68.5682 340.239 68.3928 341.087 68.0419 341.798C67.6911 342.506 67.1802 343.051 66.5092 343.432C65.8383 343.811 65.0227 344 64.0625 344ZM62.2898 342.984H63.9886C64.7704 342.984 65.4182 342.834 65.9322 342.532C66.4461 342.23 66.8293 341.801 67.0817 341.244C67.334 340.687 67.4602 340.024 67.4602 339.254C67.4602 338.491 67.3356 337.834 67.0863 337.283C66.837 336.729 66.4646 336.304 65.9691 336.009C65.4736 335.71 64.8565 335.561 64.1179 335.561H62.2898V342.984ZM70.3409 344V336.909H71.4304V344H70.3409ZM70.8949 335.727C70.6825 335.727 70.4994 335.655 70.3455 335.51C70.1947 335.366 70.1193 335.192 70.1193 334.989C70.1193 334.786 70.1947 334.612 70.3455 334.467C70.4994 334.322 70.6825 334.25 70.8949 334.25C71.1072 334.25 71.2888 334.322 71.4396 334.467C71.5935 334.612 71.6705 334.786 71.6705 334.989C71.6705 335.192 71.5935 335.366 71.4396 335.51C71.2888 335.655 71.1072 335.727 70.8949 335.727ZM78.4486 338.497L77.4699 338.774C77.4084 338.611 77.3176 338.453 77.1975 338.299C77.0806 338.142 76.9205 338.012 76.7174 337.911C76.5143 337.809 76.2542 337.759 75.9372 337.759C75.5033 337.759 75.1417 337.859 74.8524 338.059C74.5661 338.256 74.423 338.506 74.423 338.811C74.423 339.082 74.5215 339.296 74.7185 339.453C74.9155 339.61 75.2232 339.741 75.6418 339.845L76.6943 340.104C77.3283 340.258 77.8008 340.493 78.1116 340.81C78.4224 341.124 78.5779 341.529 78.5779 342.024C78.5779 342.43 78.4609 342.794 78.227 343.114C77.9962 343.434 77.673 343.686 77.2575 343.871C76.8421 344.055 76.3589 344.148 75.808 344.148C75.0847 344.148 74.4861 343.991 74.0122 343.677C73.5382 343.363 73.2381 342.904 73.1119 342.301L74.146 342.043C74.2445 342.424 74.4307 342.71 74.7046 342.901C74.9816 343.092 75.3432 343.188 75.7895 343.188C76.2973 343.188 76.7005 343.08 76.999 342.864C77.3006 342.646 77.4514 342.384 77.4514 342.08C77.4514 341.833 77.3653 341.627 77.1929 341.461C77.0206 341.292 76.7559 341.165 76.3989 341.082L75.2171 340.805C74.5677 340.652 74.0906 340.413 73.786 340.09C73.4843 339.764 73.3335 339.356 73.3335 338.866C73.3335 338.466 73.4459 338.112 73.6705 337.805C73.8983 337.497 74.2076 337.255 74.5985 337.08C74.9924 336.904 75.4387 336.817 75.9372 336.817C76.6389 336.817 77.1898 336.971 77.5899 337.278C77.9931 337.586 78.2793 337.992 78.4486 338.497ZM83.0985 344.148C82.4338 344.148 81.8613 343.991 81.3812 343.677C80.9011 343.363 80.5318 342.931 80.2733 342.38C80.0147 341.829 79.8855 341.199 79.8855 340.491C79.8855 339.771 80.0178 339.136 80.2825 338.585C80.5502 338.031 80.9226 337.598 81.3997 337.288C81.8798 336.974 82.4399 336.817 83.0801 336.817C83.5787 336.817 84.028 336.909 84.4281 337.094C84.8282 337.278 85.156 337.537 85.4114 337.869C85.6668 338.202 85.8253 338.589 85.8869 339.033H84.7974C84.7143 338.71 84.5297 338.423 84.2434 338.174C83.9603 337.922 83.5787 337.795 83.0985 337.795C82.6738 337.795 82.3014 337.906 81.9814 338.128C81.6644 338.346 81.4166 338.656 81.2381 339.056C81.0627 339.453 80.975 339.919 80.975 340.455C80.975 341.002 81.0611 341.479 81.2335 341.886C81.4089 342.292 81.6551 342.607 81.9721 342.832C82.2922 343.057 82.6677 343.169 83.0985 343.169C83.3817 343.169 83.6387 343.12 83.8695 343.021C84.1003 342.923 84.2958 342.781 84.4558 342.597C84.6158 342.412 84.7297 342.19 84.7974 341.932H85.8869C85.8253 342.35 85.673 342.727 85.4299 343.063C85.1898 343.395 84.8713 343.66 84.4743 343.857C84.0803 344.051 83.6217 344.148 83.0985 344.148ZM90.3603 344.148C89.7201 344.148 89.1584 343.995 88.6752 343.691C88.1951 343.386 87.8197 342.96 87.5488 342.412C87.2811 341.864 87.1472 341.224 87.1472 340.491C87.1472 339.753 87.2811 339.108 87.5488 338.557C87.8197 338.006 88.1951 337.578 88.6752 337.274C89.1584 336.969 89.7201 336.817 90.3603 336.817C91.0004 336.817 91.5605 336.969 92.0407 337.274C92.5239 337.578 92.8993 338.006 93.1671 338.557C93.4379 339.108 93.5733 339.753 93.5733 340.491C93.5733 341.224 93.4379 341.864 93.1671 342.412C92.8993 342.96 92.5239 343.386 92.0407 343.691C91.5605 343.995 91.0004 344.148 90.3603 344.148ZM90.3603 343.169C90.8465 343.169 91.2466 343.044 91.5605 342.795C91.8745 342.546 92.1068 342.218 92.2576 341.812C92.4084 341.406 92.4838 340.965 92.4838 340.491C92.4838 340.018 92.4084 339.576 92.2576 339.167C92.1068 338.757 91.8745 338.426 91.5605 338.174C91.2466 337.922 90.8465 337.795 90.3603 337.795C89.874 337.795 89.4739 337.922 89.16 338.174C88.8461 338.426 88.6137 338.757 88.4629 339.167C88.3121 339.576 88.2367 340.018 88.2367 340.491C88.2367 340.965 88.3121 341.406 88.4629 341.812C88.6137 342.218 88.8461 342.546 89.16 342.795C89.4739 343.044 89.874 343.169 90.3603 343.169ZM96.3259 339.734V344H95.2364V336.909H96.289V338.017H96.3813C96.5475 337.657 96.7999 337.368 97.1384 337.149C97.4769 336.928 97.914 336.817 98.4495 336.817C98.9296 336.817 99.3497 336.915 99.7098 337.112C100.07 337.306 100.35 337.602 100.55 337.999C100.75 338.393 100.85 338.891 100.85 339.494V344H99.7606V339.568C99.7606 339.011 99.6159 338.577 99.3266 338.266C99.0373 337.952 98.6403 337.795 98.1356 337.795C97.7878 337.795 97.4769 337.871 97.203 338.022C96.9322 338.172 96.7183 338.393 96.5613 338.682C96.4044 338.971 96.3259 339.322 96.3259 339.734ZM103.93 339.734V344H102.841V336.909H103.893V338.017H103.986C104.152 337.657 104.404 337.368 104.743 337.149C105.081 336.928 105.518 336.817 106.054 336.817C106.534 336.817 106.954 336.915 107.314 337.112C107.674 337.306 107.954 337.602 108.154 337.999C108.355 338.393 108.455 338.891 108.455 339.494V344H107.365V339.568C107.365 339.011 107.22 338.577 106.931 338.266C106.642 337.952 106.245 337.795 105.74 337.795C105.392 337.795 105.081 337.871 104.808 338.022C104.537 338.172 104.323 338.393 104.166 338.682C104.009 338.971 103.93 339.322 103.93 339.734ZM113.418 344.148C112.735 344.148 112.146 343.997 111.65 343.695C111.158 343.391 110.778 342.966 110.51 342.421C110.245 341.873 110.113 341.236 110.113 340.51C110.113 339.784 110.245 339.143 110.51 338.589C110.778 338.032 111.15 337.598 111.627 337.288C112.107 336.974 112.667 336.817 113.308 336.817C113.677 336.817 114.042 336.878 114.402 337.001C114.762 337.125 115.09 337.325 115.385 337.602C115.68 337.875 115.916 338.239 116.091 338.691C116.267 339.143 116.354 339.701 116.354 340.362V340.824H110.889V339.882H115.247C115.247 339.482 115.167 339.125 115.006 338.811C114.85 338.497 114.625 338.249 114.332 338.068C114.043 337.886 113.702 337.795 113.308 337.795C112.874 337.795 112.498 337.903 112.181 338.119C111.867 338.331 111.626 338.608 111.456 338.95C111.287 339.291 111.203 339.657 111.203 340.048V340.676C111.203 341.212 111.295 341.666 111.479 342.038C111.667 342.407 111.927 342.689 112.26 342.883C112.592 343.074 112.978 343.169 113.418 343.169C113.705 343.169 113.963 343.129 114.194 343.049C114.428 342.966 114.629 342.843 114.799 342.68C114.968 342.513 115.099 342.307 115.191 342.061L116.244 342.357C116.133 342.714 115.947 343.027 115.685 343.298C115.424 343.566 115.1 343.775 114.716 343.926C114.331 344.074 113.899 344.148 113.418 344.148ZM120.892 344.148C120.228 344.148 119.655 343.991 119.175 343.677C118.695 343.363 118.326 342.931 118.067 342.38C117.809 341.829 117.679 341.199 117.679 340.491C117.679 339.771 117.812 339.136 118.076 338.585C118.344 338.031 118.717 337.598 119.194 337.288C119.674 336.974 120.234 336.817 120.874 336.817C121.373 336.817 121.822 336.909 122.222 337.094C122.622 337.278 122.95 337.537 123.205 337.869C123.461 338.202 123.619 338.589 123.681 339.033H122.591C122.508 338.71 122.324 338.423 122.037 338.174C121.754 337.922 121.373 337.795 120.892 337.795C120.468 337.795 120.095 337.906 119.775 338.128C119.458 338.346 119.211 338.656 119.032 339.056C118.857 339.453 118.769 339.919 118.769 340.455C118.769 341.002 118.855 341.479 119.027 341.886C119.203 342.292 119.449 342.607 119.766 342.832C120.086 343.057 120.462 343.169 120.892 343.169C121.176 343.169 121.433 343.12 121.663 343.021C121.894 342.923 122.09 342.781 122.25 342.597C122.41 342.412 122.524 342.19 122.591 341.932H123.681C123.619 342.35 123.467 342.727 123.224 343.063C122.984 343.395 122.665 343.66 122.268 343.857C121.874 344.051 121.416 344.148 120.892 344.148ZM128.357 336.909V337.832H124.683V336.909H128.357ZM125.754 335.21H126.843V341.969C126.843 342.277 126.888 342.507 126.977 342.661C127.069 342.812 127.186 342.914 127.328 342.966C127.473 343.015 127.625 343.04 127.785 343.04C127.905 343.04 128.003 343.034 128.08 343.021C128.157 343.006 128.219 342.994 128.265 342.984L128.487 343.963C128.413 343.991 128.31 344.018 128.177 344.046C128.045 344.077 127.877 344.092 127.674 344.092C127.366 344.092 127.065 344.026 126.769 343.894C126.477 343.761 126.234 343.56 126.04 343.289C125.849 343.018 125.754 342.677 125.754 342.264V335.21Z" fill="white"/>
<rect x="268" y="321" width="72" height="36" rx="18" fill="black"/>
<path fill-rule="evenodd" clip-rule="evenodd" d="M314.586 340.297C313.805 339.581 313.805 338.42 314.586 337.704L324.586 328.537C325.367 327.821 326.633 327.821 327.414 328.537C328.195 329.253 328.195 330.414 327.414 331.13L318.828 339L327.414 346.871C328.195 347.587 328.195 348.747 327.414 349.463C326.633 350.179 325.367 350.179 324.586 349.463L314.586 340.297Z" fill="white"/>
<path fill-rule="evenodd" clip-rule="evenodd" d="M297.586 340.297C296.805 339.581 296.805 338.42 297.586 337.704L307.586 328.537C308.367 327.821 309.633 327.821 310.414 328.537C311.195 329.253 311.195 330.414 310.414 331.13L301.828 339L310.414 346.871C311.195 347.587 311.195 348.747 310.414 349.463C309.633 350.179 308.367 350.179 307.586 349.463L297.586 340.297Z" fill="white"/>
<path fill-rule="evenodd" clip-rule="evenodd" d="M280.586 340.297C279.805 339.581 279.805 338.42 280.586 337.704L290.586 328.537C291.367 327.821 292.633 327.821 293.414 328.537C294.195 329.253 294.195 330.414 293.414 331.13L284.828 339L293.414 346.871C294.195 347.587 294.195 348.747 293.414 349.463C292.633 350.179 291.367 350.179 290.586 349.463L280.586 340.297Z" fill="white"/>
<rect opacity="0.9" x="40" y="446" width="301" height="109" rx="9" fill="#E6E7E8"/>
<path d="M140.443 484L142.352 472.364H143.943L142.034 484H140.443ZM135.199 481L135.466 479.409H144.42L144.153 481H135.199ZM136.352 484L138.261 472.364H139.852L137.943 484H136.352ZM135.875 476.955L136.136 475.364H145.091L144.83 476.955H135.875ZM152.521 472.364V484H150.413V472.364H152.521ZM154.713 484V475.273H156.707V476.727H156.798C156.957 476.223 157.23 475.835 157.616 475.562C158.007 475.286 158.452 475.148 158.952 475.148C159.065 475.148 159.192 475.153 159.332 475.165C159.476 475.172 159.596 475.186 159.69 475.205V477.097C159.603 477.066 159.465 477.04 159.276 477.017C159.09 476.991 158.91 476.977 158.736 476.977C158.361 476.977 158.024 477.059 157.724 477.222C157.429 477.381 157.196 477.602 157.026 477.886C156.855 478.17 156.77 478.498 156.77 478.869V484H154.713ZM163.936 484.153C163.25 484.153 162.637 483.977 162.095 483.625C161.554 483.273 161.125 482.761 160.811 482.091C160.497 481.42 160.339 480.606 160.339 479.648C160.339 478.678 160.499 477.86 160.817 477.193C161.139 476.523 161.572 476.017 162.118 475.676C162.663 475.331 163.271 475.159 163.942 475.159C164.453 475.159 164.874 475.246 165.203 475.42C165.533 475.591 165.794 475.797 165.987 476.04C166.18 476.278 166.33 476.504 166.436 476.716H166.521V472.364H168.584V484H166.561V482.625H166.436C166.33 482.837 166.177 483.062 165.976 483.301C165.775 483.536 165.51 483.737 165.18 483.903C164.851 484.07 164.436 484.153 163.936 484.153ZM164.51 482.466C164.946 482.466 165.317 482.348 165.624 482.114C165.93 481.875 166.163 481.544 166.322 481.119C166.482 480.695 166.561 480.201 166.561 479.636C166.561 479.072 166.482 478.581 166.322 478.165C166.167 477.748 165.936 477.424 165.629 477.193C165.326 476.962 164.953 476.847 164.51 476.847C164.052 476.847 163.669 476.966 163.362 477.205C163.055 477.443 162.824 477.773 162.669 478.193C162.514 478.614 162.436 479.095 162.436 479.636C162.436 480.182 162.514 480.669 162.669 481.097C162.828 481.521 163.061 481.856 163.368 482.102C163.679 482.345 164.059 482.466 164.51 482.466ZM174.639 484.17C173.764 484.17 173.009 483.989 172.372 483.625C171.74 483.258 171.253 482.739 170.912 482.068C170.571 481.394 170.401 480.6 170.401 479.688C170.401 478.79 170.571 478.002 170.912 477.324C171.257 476.642 171.738 476.112 172.355 475.733C172.973 475.35 173.698 475.159 174.531 475.159C175.069 475.159 175.577 475.246 176.054 475.42C176.535 475.591 176.959 475.856 177.327 476.216C177.698 476.576 177.99 477.034 178.202 477.591C178.414 478.144 178.52 478.803 178.52 479.568V480.199H171.366V478.812H176.548C176.545 478.419 176.459 478.068 176.293 477.761C176.126 477.451 175.893 477.206 175.594 477.028C175.298 476.85 174.954 476.761 174.56 476.761C174.139 476.761 173.77 476.864 173.452 477.068C173.134 477.269 172.885 477.534 172.707 477.864C172.533 478.189 172.444 478.547 172.44 478.938V480.148C172.44 480.655 172.533 481.091 172.719 481.455C172.904 481.814 173.164 482.091 173.497 482.284C173.83 482.473 174.221 482.568 174.668 482.568C174.967 482.568 175.238 482.527 175.48 482.443C175.723 482.356 175.933 482.229 176.111 482.062C176.289 481.896 176.423 481.689 176.514 481.443L178.435 481.659C178.313 482.167 178.082 482.61 177.741 482.989C177.404 483.364 176.973 483.655 176.446 483.864C175.92 484.068 175.317 484.17 174.639 484.17ZM184.618 475.273V476.864H179.601V475.273H184.618ZM180.839 473.182H182.896V481.375C182.896 481.652 182.938 481.864 183.021 482.011C183.108 482.155 183.222 482.254 183.362 482.307C183.502 482.36 183.658 482.386 183.828 482.386C183.957 482.386 184.074 482.377 184.18 482.358C184.29 482.339 184.374 482.322 184.43 482.307L184.777 483.915C184.667 483.953 184.51 483.994 184.305 484.04C184.105 484.085 183.858 484.112 183.567 484.119C183.052 484.134 182.588 484.057 182.175 483.886C181.762 483.712 181.434 483.443 181.192 483.08C180.953 482.716 180.836 482.261 180.839 481.716V473.182ZM190.051 484.17C189.199 484.17 188.46 483.983 187.835 483.608C187.21 483.233 186.725 482.708 186.381 482.034C186.04 481.36 185.869 480.572 185.869 479.67C185.869 478.769 186.04 477.979 186.381 477.301C186.725 476.623 187.21 476.097 187.835 475.722C188.46 475.347 189.199 475.159 190.051 475.159C190.903 475.159 191.642 475.347 192.267 475.722C192.892 476.097 193.375 476.623 193.716 477.301C194.061 477.979 194.233 478.769 194.233 479.67C194.233 480.572 194.061 481.36 193.716 482.034C193.375 482.708 192.892 483.233 192.267 483.608C191.642 483.983 190.903 484.17 190.051 484.17ZM190.062 482.523C190.525 482.523 190.911 482.396 191.222 482.142C191.532 481.884 191.763 481.54 191.915 481.108C192.07 480.676 192.148 480.195 192.148 479.665C192.148 479.131 192.07 478.648 191.915 478.216C191.763 477.78 191.532 477.434 191.222 477.176C190.911 476.919 190.525 476.79 190.062 476.79C189.589 476.79 189.195 476.919 188.881 477.176C188.57 477.434 188.337 477.78 188.182 478.216C188.03 478.648 187.955 479.131 187.955 479.665C187.955 480.195 188.03 480.676 188.182 481.108C188.337 481.54 188.57 481.884 188.881 482.142C189.195 482.396 189.589 482.523 190.062 482.523ZM202.428 484V485.642H194.911V484H202.428ZM203.554 484V472.364H205.662V477.29H211.054V472.364H213.168V484H211.054V479.057H205.662V484H203.554ZM217.909 484L214.625 472.364H216.892L218.989 480.915H219.097L221.335 472.364H223.398L225.642 480.92H225.744L227.841 472.364H230.108L226.824 484H224.744L222.415 475.835H222.324L219.989 484H217.909ZM237.928 484V485.642H230.411V484H237.928ZM241.939 472.364V484H239.831V474.415H239.763L237.041 476.153V474.222L239.933 472.364H241.939ZM249.626 472.364V484H247.518V474.415H247.45L244.729 476.153V474.222L247.621 472.364H249.626Z" fill="black"/>
<path d="M106.389 497.909C106.337 497.383 106.105 496.964 105.692 496.653C105.28 496.343 104.761 496.187 104.136 496.187C103.696 496.187 103.308 496.263 102.973 496.413C102.641 496.564 102.379 496.773 102.188 497.041C102 497.306 101.907 497.607 101.907 497.946C101.907 498.195 101.96 498.414 102.068 498.602C102.176 498.789 102.321 498.951 102.502 499.086C102.687 499.219 102.89 499.333 103.112 499.428C103.336 499.523 103.562 499.603 103.79 499.668L104.787 499.954C105.089 500.037 105.391 500.143 105.692 500.273C105.994 500.402 106.269 500.565 106.518 500.762C106.771 500.956 106.972 501.194 107.123 501.478C107.277 501.758 107.354 502.095 107.354 502.489C107.354 502.993 107.223 503.447 106.962 503.85C106.7 504.254 106.325 504.574 105.835 504.811C105.346 505.045 104.76 505.162 104.076 505.162C103.433 505.162 102.875 505.055 102.401 504.843C101.927 504.628 101.554 504.331 101.283 503.952C101.013 503.574 100.86 503.135 100.826 502.636H101.713C101.743 503.009 101.867 503.324 102.082 503.583C102.297 503.841 102.578 504.038 102.922 504.174C103.267 504.306 103.652 504.372 104.076 504.372C104.547 504.372 104.966 504.294 105.332 504.137C105.701 503.977 105.991 503.755 106.2 503.472C106.412 503.186 106.518 502.853 106.518 502.475C106.518 502.155 106.435 501.887 106.269 501.672C106.103 501.453 105.871 501.27 105.572 501.122C105.277 500.974 104.933 500.844 104.543 500.73L103.412 500.397C102.67 500.176 102.094 499.87 101.685 499.479C101.276 499.088 101.071 498.589 101.071 497.983C101.071 497.475 101.206 497.029 101.477 496.644C101.751 496.256 102.121 495.955 102.585 495.739C103.053 495.521 103.578 495.412 104.159 495.412C104.747 495.412 105.267 495.519 105.72 495.735C106.172 495.95 106.531 496.247 106.795 496.626C107.063 497.001 107.206 497.429 107.225 497.909H106.389ZM112.054 497.909V498.625H108.67V497.909H112.054ZM109.727 496.21H110.553V503.149C110.553 503.444 110.604 503.677 110.706 503.846C110.807 504.012 110.94 504.131 111.103 504.201C111.266 504.269 111.44 504.303 111.624 504.303C111.732 504.303 111.824 504.297 111.901 504.284C111.978 504.269 112.046 504.254 112.104 504.238L112.28 504.982C112.2 505.012 112.101 505.04 111.984 505.065C111.867 505.092 111.723 505.106 111.55 505.106C111.249 505.106 110.958 505.04 110.678 504.908C110.401 504.775 110.173 504.578 109.995 504.317C109.816 504.055 109.727 503.73 109.727 503.343V496.21ZM115.9 505.162C115.473 505.162 115.082 505.078 114.728 504.912C114.374 504.743 114.092 504.5 113.883 504.183C113.674 503.863 113.569 503.475 113.569 503.02C113.569 502.669 113.635 502.373 113.767 502.133C113.9 501.893 114.088 501.696 114.331 501.542C114.574 501.388 114.862 501.267 115.194 501.178C115.526 501.088 115.893 501.019 116.293 500.97C116.69 500.921 117.025 500.877 117.299 500.841C117.576 500.804 117.787 500.745 117.932 500.665C118.076 500.585 118.149 500.456 118.149 500.277V500.111C118.149 499.628 118.004 499.248 117.715 498.971C117.428 498.691 117.016 498.551 116.477 498.551C115.966 498.551 115.549 498.663 115.226 498.888C114.906 499.112 114.682 499.377 114.552 499.682L113.772 499.4C113.932 499.012 114.154 498.703 114.437 498.472C114.72 498.238 115.037 498.071 115.388 497.969C115.739 497.864 116.094 497.812 116.454 497.812C116.725 497.812 117.007 497.848 117.299 497.918C117.595 497.989 117.868 498.112 118.121 498.288C118.373 498.46 118.578 498.702 118.735 499.012C118.892 499.32 118.97 499.711 118.97 500.185V505H118.149V503.878H118.098C117.999 504.087 117.853 504.291 117.659 504.488C117.465 504.685 117.222 504.846 116.93 504.972C116.637 505.098 116.294 505.162 115.9 505.162ZM116.011 504.409C116.448 504.409 116.827 504.312 117.147 504.118C117.467 503.924 117.713 503.667 117.885 503.347C118.061 503.024 118.149 502.669 118.149 502.281V501.256C118.087 501.315 117.984 501.367 117.839 501.413C117.698 501.459 117.533 501.501 117.345 501.538C117.161 501.571 116.976 501.601 116.791 501.625C116.607 501.65 116.44 501.672 116.293 501.69C115.893 501.739 115.551 501.816 115.268 501.921C114.985 502.025 114.768 502.17 114.617 502.355C114.466 502.536 114.391 502.77 114.391 503.056C114.391 503.487 114.545 503.821 114.852 504.058C115.16 504.292 115.546 504.409 116.011 504.409ZM121.156 505V497.909H121.955V498.999H122.015C122.156 498.642 122.403 498.354 122.753 498.135C123.107 497.914 123.507 497.803 123.954 497.803C124.021 497.803 124.097 497.804 124.18 497.808C124.263 497.811 124.332 497.814 124.388 497.817V498.652C124.351 498.646 124.286 498.637 124.194 498.625C124.101 498.612 124.001 498.606 123.894 498.606C123.524 498.606 123.195 498.685 122.906 498.842C122.62 498.996 122.393 499.209 122.227 499.483C122.061 499.757 121.978 500.07 121.978 500.42V505H121.156ZM129.027 497.909V498.625H125.643V497.909H129.027ZM126.701 496.21H127.527V503.149C127.527 503.444 127.578 503.677 127.679 503.846C127.781 504.012 127.913 504.131 128.076 504.201C128.239 504.269 128.413 504.303 128.598 504.303C128.706 504.303 128.798 504.297 128.875 504.284C128.952 504.269 129.02 504.254 129.078 504.238L129.253 504.982C129.173 505.012 129.075 505.04 128.958 505.065C128.841 505.092 128.696 505.106 128.524 505.106C128.222 505.106 127.932 505.04 127.652 504.908C127.375 504.775 127.147 504.578 126.968 504.317C126.79 504.055 126.701 503.73 126.701 503.343V496.21ZM134.148 496.321V495.545H141.004V496.321H138.007V505H137.144V496.321H134.148ZM142.786 505V497.909H143.612V505H142.786ZM143.206 496.69C143.036 496.69 142.892 496.633 142.772 496.52C142.652 496.403 142.592 496.263 142.592 496.099C142.592 495.936 142.652 495.798 142.772 495.684C142.892 495.567 143.036 495.509 143.206 495.509C143.375 495.509 143.52 495.567 143.64 495.684C143.76 495.798 143.82 495.936 143.82 496.099C143.82 496.263 143.76 496.403 143.64 496.52C143.52 496.633 143.375 496.69 143.206 496.69ZM145.785 505V497.909H146.584V498.999H146.658C146.799 498.632 147.035 498.345 147.364 498.135C147.696 497.923 148.095 497.817 148.56 497.817C149.049 497.817 149.451 497.932 149.764 498.163C150.081 498.391 150.318 498.705 150.475 499.105H150.535C150.695 498.711 150.956 498.398 151.316 498.168C151.679 497.934 152.119 497.817 152.636 497.817C153.295 497.817 153.815 498.025 154.196 498.44C154.578 498.852 154.769 499.456 154.769 500.25V505H153.947V500.25C153.947 499.69 153.804 499.269 153.518 498.989C153.231 498.709 152.854 498.569 152.387 498.569C151.845 498.569 151.428 498.735 151.136 499.068C150.843 499.4 150.697 499.822 150.697 500.333V505H149.857V500.176C149.857 499.696 149.723 499.308 149.455 499.012C149.187 498.717 148.81 498.569 148.324 498.569C147.998 498.569 147.704 498.649 147.442 498.809C147.184 498.969 146.979 499.192 146.828 499.479C146.681 499.762 146.607 500.088 146.607 500.457V505H145.785ZM159.811 505.148C159.149 505.148 158.577 504.994 158.094 504.686C157.611 504.375 157.237 503.946 156.972 503.398C156.71 502.847 156.58 502.213 156.58 501.496C156.58 500.782 156.71 500.148 156.972 499.594C157.237 499.037 157.601 498.602 158.066 498.288C158.534 497.971 159.074 497.812 159.686 497.812C160.071 497.812 160.442 497.883 160.799 498.025C161.156 498.163 161.476 498.377 161.759 498.666C162.045 498.952 162.272 499.314 162.438 499.751C162.604 500.185 162.687 500.699 162.687 501.293V501.699H157.147V500.974H161.847C161.847 500.519 161.755 500.11 161.57 499.746C161.388 499.38 161.134 499.091 160.808 498.879C160.485 498.666 160.111 498.56 159.686 498.56C159.237 498.56 158.842 498.68 158.5 498.92C158.158 499.16 157.891 499.477 157.697 499.871C157.506 500.265 157.409 500.696 157.406 501.164V501.598C157.406 502.161 157.503 502.653 157.697 503.075C157.894 503.493 158.172 503.818 158.532 504.049C158.892 504.28 159.319 504.395 159.811 504.395C160.147 504.395 160.44 504.343 160.693 504.238C160.948 504.134 161.162 503.994 161.335 503.818C161.51 503.64 161.642 503.444 161.732 503.232L162.512 503.486C162.404 503.784 162.227 504.06 161.981 504.312C161.738 504.565 161.433 504.768 161.067 504.922C160.704 505.072 160.285 505.148 159.811 505.148ZM165.153 504.82C164.972 504.82 164.815 504.755 164.683 504.626C164.553 504.497 164.489 504.34 164.489 504.155C164.489 503.974 164.553 503.818 164.683 503.689C164.815 503.557 164.972 503.49 165.153 503.49C165.338 503.49 165.495 503.557 165.624 503.689C165.754 503.818 165.818 503.974 165.818 504.155C165.818 504.278 165.787 504.391 165.726 504.492C165.667 504.591 165.587 504.671 165.486 504.732C165.387 504.791 165.277 504.82 165.153 504.82ZM165.153 499.705C164.972 499.705 164.815 499.64 164.683 499.511C164.553 499.382 164.489 499.225 164.489 499.04C164.489 498.859 164.553 498.703 164.683 498.574C164.815 498.442 164.972 498.375 165.153 498.375C165.338 498.375 165.495 498.442 165.624 498.574C165.754 498.703 165.818 498.859 165.818 499.04C165.818 499.163 165.787 499.276 165.726 499.377C165.667 499.476 165.587 499.556 165.486 499.617C165.387 499.676 165.277 499.705 165.153 499.705ZM174.531 495.545V505H173.667V496.45H173.612L171.396 497.923V497.027L173.631 495.545H174.531ZM180.32 495.545V505H179.456V496.45H179.401L177.185 497.923V497.027L179.42 495.545H180.32ZM186.294 495.102L183.247 506.422H182.476L185.523 495.102H186.294ZM190.603 495.545V505H189.74V496.45H189.684L187.468 497.923V497.027L189.703 495.545H190.603ZM196.397 505.129C195.793 505.129 195.256 505.015 194.786 504.788C194.315 504.56 193.945 504.249 193.678 503.855C193.41 503.458 193.276 503.01 193.276 502.512C193.276 502.121 193.357 501.756 193.521 501.418C193.684 501.076 193.908 500.79 194.195 500.559C194.481 500.325 194.802 500.173 195.159 500.102V500.051C194.695 499.916 194.321 499.65 194.038 499.252C193.754 498.852 193.614 498.398 193.618 497.891C193.614 497.42 193.734 496.998 193.978 496.626C194.221 496.253 194.552 495.959 194.97 495.744C195.392 495.525 195.867 495.416 196.397 495.416C196.923 495.416 197.395 495.525 197.814 495.744C198.232 495.959 198.563 496.253 198.806 496.626C199.053 496.998 199.177 497.42 199.18 497.891C199.177 498.395 199.034 498.849 198.751 499.252C198.468 499.653 198.096 499.919 197.634 500.051V500.102C197.991 500.17 198.311 500.32 198.594 500.554C198.877 500.788 199.102 501.076 199.268 501.418C199.434 501.756 199.517 502.121 199.517 502.512C199.517 503.01 199.382 503.458 199.111 503.855C198.843 504.249 198.474 504.56 198.003 504.788C197.535 505.015 197 505.129 196.397 505.129ZM196.397 504.354C196.846 504.354 197.24 504.274 197.578 504.114C197.92 503.951 198.186 503.727 198.377 503.444C198.571 503.161 198.668 502.836 198.668 502.47C198.668 502.092 198.568 501.755 198.368 501.459C198.168 501.161 197.897 500.925 197.555 500.753C197.214 500.577 196.828 500.49 196.397 500.49C195.966 500.49 195.578 500.577 195.233 500.753C194.892 500.925 194.621 501.161 194.421 501.459C194.224 501.755 194.125 502.092 194.125 502.47C194.125 502.836 194.219 503.161 194.407 503.444C194.598 503.727 194.864 503.951 195.206 504.114C195.55 504.274 195.947 504.354 196.397 504.354ZM196.397 499.751C196.766 499.751 197.097 499.673 197.389 499.516C197.682 499.359 197.912 499.145 198.082 498.874C198.254 498.6 198.342 498.289 198.345 497.941C198.342 497.597 198.256 497.292 198.086 497.027C197.917 496.76 197.686 496.552 197.394 496.404C197.105 496.253 196.772 496.178 196.397 496.178C196.021 496.178 195.686 496.253 195.39 496.404C195.098 496.552 194.867 496.76 194.698 497.027C194.532 497.292 194.45 497.597 194.453 497.941C194.45 498.289 194.533 498.6 194.702 498.874C194.875 499.145 195.107 499.359 195.4 499.516C195.695 499.673 196.027 499.751 196.397 499.751ZM204.537 495.102L201.49 506.422H200.719L203.766 495.102H204.537ZM205.929 505V504.368L209.017 500.896C209.42 500.44 209.745 500.051 209.991 499.728C210.237 499.405 210.416 499.106 210.527 498.832C210.64 498.558 210.697 498.274 210.697 497.978C210.697 497.618 210.613 497.304 210.443 497.037C210.277 496.766 210.048 496.555 209.756 496.404C209.463 496.253 209.134 496.178 208.768 496.178C208.38 496.178 208.04 496.261 207.747 496.427C207.458 496.593 207.233 496.821 207.073 497.11C206.913 497.4 206.833 497.732 206.833 498.108H206.007C206.007 497.584 206.127 497.121 206.367 496.718C206.61 496.312 206.941 495.993 207.36 495.762C207.781 495.532 208.258 495.416 208.791 495.416C209.317 495.416 209.785 495.53 210.194 495.758C210.603 495.982 210.925 496.289 211.159 496.676C211.393 497.064 211.51 497.498 211.51 497.978C211.51 498.326 211.448 498.663 211.325 498.989C211.205 499.316 210.997 499.679 210.702 500.079C210.407 500.479 209.997 500.968 209.474 501.547L207.129 504.164V504.224H211.805V505H205.929ZM216.781 495.545V505H215.917V496.45H215.862L213.646 497.923V497.027L215.881 495.545H216.781ZM223.308 505V504.368L226.397 500.896C226.8 500.44 227.125 500.051 227.371 499.728C227.617 499.405 227.796 499.106 227.906 498.832C228.02 498.558 228.077 498.274 228.077 497.978C228.077 497.618 227.993 497.304 227.823 497.037C227.657 496.766 227.428 496.555 227.135 496.404C226.843 496.253 226.514 496.178 226.148 496.178C225.76 496.178 225.42 496.261 225.127 496.427C224.838 496.593 224.613 496.821 224.453 497.11C224.293 497.4 224.213 497.732 224.213 498.108H223.387C223.387 497.584 223.507 497.121 223.747 496.718C223.99 496.312 224.321 495.993 224.74 495.762C225.161 495.532 225.638 495.416 226.171 495.416C226.697 495.416 227.165 495.53 227.574 495.758C227.983 495.982 228.305 496.289 228.539 496.676C228.773 497.064 228.89 497.498 228.89 497.978C228.89 498.326 228.828 498.663 228.705 498.989C228.585 499.316 228.377 499.679 228.082 500.079C227.786 500.479 227.377 500.968 226.854 501.547L224.509 504.164V504.224H229.185V505H223.308ZM231.931 503.583C231.749 503.583 231.592 503.518 231.46 503.389C231.331 503.257 231.266 503.1 231.266 502.918C231.266 502.733 231.331 502.576 231.46 502.447C231.592 502.318 231.749 502.253 231.931 502.253C232.116 502.253 232.272 502.318 232.402 502.447C232.531 502.576 232.596 502.733 232.596 502.918C232.596 503.038 232.565 503.149 232.503 503.25C232.445 503.352 232.365 503.433 232.263 503.495C232.165 503.554 232.054 503.583 231.931 503.583ZM231.931 498.786C231.749 498.786 231.592 498.722 231.46 498.592C231.331 498.46 231.266 498.303 231.266 498.121C231.266 497.94 231.331 497.784 231.46 497.655C231.592 497.523 231.749 497.457 231.931 497.457C232.116 497.457 232.272 497.523 232.402 497.655C232.531 497.784 232.596 497.94 232.596 498.121C232.596 498.241 232.565 498.352 232.503 498.454C232.445 498.555 232.365 498.637 232.263 498.699C232.165 498.757 232.054 498.786 231.931 498.786ZM237.499 505.129C236.973 505.129 236.502 505.023 236.087 504.811C235.674 504.595 235.345 504.3 235.099 503.924C234.856 503.549 234.727 503.12 234.711 502.636H235.547C235.574 503.138 235.771 503.55 236.138 503.874C236.504 504.194 236.958 504.354 237.499 504.354C237.921 504.354 238.297 504.254 238.626 504.054C238.955 503.85 239.212 503.574 239.397 503.223C239.585 502.869 239.678 502.47 239.678 502.027C239.675 501.565 239.575 501.159 239.378 500.808C239.181 500.454 238.914 500.177 238.575 499.977C238.24 499.777 237.863 499.677 237.444 499.677C237.127 499.674 236.816 499.726 236.512 499.834C236.207 499.942 235.953 500.08 235.75 500.25L234.887 500.139L235.454 495.545H240.126V496.321H236.179L235.801 499.483H235.847C236.056 499.308 236.31 499.165 236.608 499.054C236.91 498.943 237.229 498.888 237.564 498.888C238.121 498.888 238.621 499.022 239.064 499.289C239.511 499.557 239.863 499.926 240.122 500.397C240.383 500.865 240.514 501.404 240.514 502.013C240.514 502.61 240.383 503.144 240.122 503.615C239.863 504.083 239.506 504.452 239.051 504.723C238.598 504.994 238.081 505.129 237.499 505.129ZM245.414 505.129C244.75 505.129 244.182 504.938 243.711 504.557C243.243 504.172 242.883 503.617 242.631 502.89C242.381 502.164 242.257 501.291 242.257 500.273C242.257 499.257 242.381 498.388 242.631 497.664C242.883 496.938 243.245 496.383 243.716 495.998C244.19 495.61 244.756 495.416 245.414 495.416C246.073 495.416 246.638 495.61 247.109 495.998C247.583 496.383 247.944 496.938 248.194 497.664C248.446 498.388 248.572 499.257 248.572 500.273C248.572 501.291 248.446 502.164 248.194 502.89C247.944 503.617 247.584 504.172 247.113 504.557C246.645 504.938 246.079 505.129 245.414 505.129ZM245.414 504.354C246.144 504.354 246.713 503.998 247.123 503.287C247.532 502.573 247.737 501.568 247.737 500.273C247.737 499.411 247.643 498.675 247.455 498.066C247.27 497.454 247.004 496.986 246.656 496.663C246.312 496.339 245.898 496.178 245.414 496.178C244.691 496.178 244.123 496.538 243.711 497.258C243.299 497.975 243.092 498.98 243.092 500.273C243.092 501.134 243.185 501.87 243.369 502.479C243.557 503.089 243.823 503.554 244.168 503.874C244.516 504.194 244.931 504.354 245.414 504.354ZM254.31 505V495.545H257.362C258.033 495.545 258.593 495.675 259.042 495.933C259.495 496.189 259.835 496.536 260.062 496.977C260.293 497.417 260.409 497.912 260.409 498.463C260.409 499.014 260.295 499.511 260.067 499.954C259.839 500.394 259.501 500.744 259.051 501.002C258.602 501.258 258.044 501.385 257.376 501.385H254.975V500.61H257.353C257.848 500.61 258.259 500.517 258.585 500.333C258.911 500.145 259.155 499.89 259.315 499.566C259.478 499.243 259.559 498.875 259.559 498.463C259.559 498.051 259.478 497.683 259.315 497.36C259.155 497.037 258.91 496.783 258.581 496.598C258.254 496.413 257.84 496.321 257.339 496.321H255.174V505H254.31ZM262.435 495.545H263.433L266.863 503.781H266.946L270.376 495.545H271.373V505H270.56V497.369H270.487L267.297 505H266.512L263.322 497.369H263.248V505H262.435V495.545Z" fill="black"/>
<path d="M93.2557 528V518.545H98.7401V519.321H94.119V522.88H98.4492V523.656H94.119V527.224H98.8324V528H93.2557ZM101.311 520.909L103.14 523.933L104.968 520.909H105.923L103.643 524.455L105.923 528H104.968L103.14 525.073L101.311 528H100.36L102.613 524.455L100.36 520.909H101.311ZM107.646 530.659V520.909H108.445V522.262H108.542C108.64 522.049 108.776 521.832 108.948 521.611C109.121 521.386 109.348 521.197 109.631 521.043C109.918 520.889 110.278 520.812 110.712 520.812C111.296 520.812 111.807 520.966 112.244 521.274C112.685 521.578 113.026 522.006 113.269 522.557C113.515 523.105 113.639 523.744 113.639 524.473C113.639 525.205 113.515 525.847 113.269 526.398C113.026 526.949 112.685 527.378 112.244 527.686C111.807 527.994 111.3 528.148 110.721 528.148C110.293 528.148 109.935 528.071 109.645 527.917C109.359 527.763 109.127 527.574 108.948 527.349C108.773 527.121 108.637 526.9 108.542 526.684H108.468V530.659H107.646ZM108.459 524.459C108.459 525.032 108.544 525.539 108.713 525.983C108.885 526.423 109.131 526.769 109.451 527.021C109.775 527.271 110.165 527.395 110.624 527.395C111.095 527.395 111.492 527.266 111.815 527.007C112.141 526.746 112.389 526.393 112.558 525.95C112.731 525.507 112.817 525.01 112.817 524.459C112.817 523.914 112.732 523.424 112.563 522.987C112.397 522.549 112.151 522.203 111.824 521.948C111.498 521.689 111.098 521.56 110.624 521.56C110.162 521.56 109.77 521.685 109.447 521.934C109.124 522.18 108.877 522.522 108.708 522.959C108.542 523.393 108.459 523.893 108.459 524.459ZM115.451 528V520.909H116.277V528H115.451ZM115.871 519.69C115.701 519.69 115.557 519.633 115.437 519.52C115.317 519.403 115.257 519.263 115.257 519.099C115.257 518.936 115.317 518.798 115.437 518.684C115.557 518.567 115.701 518.509 115.871 518.509C116.04 518.509 116.185 518.567 116.305 518.684C116.425 518.798 116.485 518.936 116.485 519.099C116.485 519.263 116.425 519.403 116.305 519.52C116.185 519.633 116.04 519.69 115.871 519.69ZM118.45 528V520.909H119.249V521.999H119.309C119.45 521.642 119.697 521.354 120.047 521.135C120.401 520.914 120.801 520.803 121.248 520.803C121.315 520.803 121.391 520.804 121.474 520.808C121.557 520.811 121.626 520.814 121.682 520.817V521.652C121.645 521.646 121.58 521.637 121.488 521.625C121.395 521.612 121.295 521.606 121.188 521.606C120.818 521.606 120.489 521.685 120.2 521.842C119.914 521.996 119.687 522.209 119.521 522.483C119.355 522.757 119.272 523.07 119.272 523.42V528H118.45ZM125.735 528.148C125.073 528.148 124.501 527.994 124.018 527.686C123.534 527.375 123.16 526.946 122.896 526.398C122.634 525.847 122.503 525.213 122.503 524.496C122.503 523.782 122.634 523.148 122.896 522.594C123.16 522.037 123.525 521.602 123.99 521.288C124.458 520.971 124.998 520.812 125.61 520.812C125.995 520.812 126.366 520.883 126.723 521.025C127.08 521.163 127.4 521.377 127.683 521.666C127.969 521.952 128.195 522.314 128.362 522.751C128.528 523.185 128.611 523.699 128.611 524.293V524.699H123.071V523.974H127.771C127.771 523.519 127.678 523.11 127.494 522.746C127.312 522.38 127.058 522.091 126.732 521.879C126.409 521.666 126.035 521.56 125.61 521.56C125.161 521.56 124.765 521.68 124.424 521.92C124.082 522.16 123.814 522.477 123.621 522.871C123.43 523.265 123.333 523.696 123.33 524.164V524.598C123.33 525.161 123.427 525.653 123.621 526.075C123.818 526.493 124.096 526.818 124.456 527.049C124.816 527.28 125.242 527.395 125.735 527.395C126.07 527.395 126.364 527.343 126.617 527.238C126.872 527.134 127.086 526.994 127.258 526.818C127.434 526.64 127.566 526.444 127.655 526.232L128.436 526.486C128.328 526.784 128.151 527.06 127.905 527.312C127.662 527.565 127.357 527.768 126.991 527.922C126.627 528.072 126.209 528.148 125.735 528.148ZM133.676 519.321V518.545H140.532V519.321H137.536V528H136.672V519.321H133.676ZM142.314 528V520.909H143.14V528H142.314ZM142.734 519.69C142.565 519.69 142.42 519.633 142.3 519.52C142.18 519.403 142.12 519.263 142.12 519.099C142.12 518.936 142.18 518.798 142.3 518.684C142.42 518.567 142.565 518.509 142.734 518.509C142.903 518.509 143.048 518.567 143.168 518.684C143.288 518.798 143.348 518.936 143.348 519.099C143.348 519.263 143.288 519.403 143.168 519.52C143.048 519.633 142.903 519.69 142.734 519.69ZM145.313 528V520.909H146.112V521.999H146.186C146.327 521.632 146.563 521.345 146.892 521.135C147.225 520.923 147.623 520.817 148.088 520.817C148.577 520.817 148.979 520.932 149.293 521.163C149.61 521.391 149.847 521.705 150.004 522.105H150.064C150.224 521.711 150.484 521.398 150.844 521.168C151.207 520.934 151.647 520.817 152.164 520.817C152.823 520.817 153.343 521.025 153.725 521.44C154.106 521.852 154.297 522.456 154.297 523.25V528H153.475V523.25C153.475 522.69 153.332 522.269 153.046 521.989C152.76 521.709 152.383 521.569 151.915 521.569C151.373 521.569 150.956 521.735 150.664 522.068C150.372 522.4 150.225 522.822 150.225 523.333V528H149.385V523.176C149.385 522.696 149.251 522.308 148.983 522.012C148.716 521.717 148.339 521.569 147.852 521.569C147.526 521.569 147.232 521.649 146.971 521.809C146.712 521.969 146.508 522.192 146.357 522.479C146.209 522.762 146.135 523.088 146.135 523.457V528H145.313ZM159.339 528.148C158.678 528.148 158.105 527.994 157.622 527.686C157.139 527.375 156.765 526.946 156.5 526.398C156.239 525.847 156.108 525.213 156.108 524.496C156.108 523.782 156.239 523.148 156.5 522.594C156.765 522.037 157.13 521.602 157.594 521.288C158.062 520.971 158.602 520.812 159.215 520.812C159.599 520.812 159.97 520.883 160.327 521.025C160.684 521.163 161.004 521.377 161.288 521.666C161.574 521.952 161.8 522.314 161.966 522.751C162.132 523.185 162.215 523.699 162.215 524.293V524.699H156.676V523.974H161.375C161.375 523.519 161.283 523.11 161.098 522.746C160.917 522.38 160.663 522.091 160.337 521.879C160.013 521.666 159.639 521.56 159.215 521.56C158.765 521.56 158.37 521.68 158.028 521.92C157.687 522.16 157.419 522.477 157.225 522.871C157.034 523.265 156.937 523.696 156.934 524.164V524.598C156.934 525.161 157.031 525.653 157.225 526.075C157.422 526.493 157.701 526.818 158.061 527.049C158.421 527.28 158.847 527.395 159.339 527.395C159.675 527.395 159.969 527.343 160.221 527.238C160.477 527.134 160.69 526.994 160.863 526.818C161.038 526.64 161.171 526.444 161.26 526.232L162.04 526.486C161.932 526.784 161.755 527.06 161.509 527.312C161.266 527.565 160.961 527.768 160.595 527.922C160.232 528.072 159.813 528.148 159.339 528.148ZM164.682 527.82C164.5 527.82 164.343 527.755 164.211 527.626C164.082 527.497 164.017 527.34 164.017 527.155C164.017 526.974 164.082 526.818 164.211 526.689C164.343 526.557 164.5 526.49 164.682 526.49C164.866 526.49 165.023 526.557 165.153 526.689C165.282 526.818 165.347 526.974 165.347 527.155C165.347 527.278 165.316 527.391 165.254 527.492C165.196 527.591 165.116 527.671 165.014 527.732C164.916 527.791 164.805 527.82 164.682 527.82ZM164.682 522.705C164.5 522.705 164.343 522.64 164.211 522.511C164.082 522.382 164.017 522.225 164.017 522.04C164.017 521.859 164.082 521.703 164.211 521.574C164.343 521.442 164.5 521.375 164.682 521.375C164.866 521.375 165.023 521.442 165.153 521.574C165.282 521.703 165.347 521.859 165.347 522.04C165.347 522.163 165.316 522.276 165.254 522.377C165.196 522.476 165.116 522.556 165.014 522.617C164.916 522.676 164.805 522.705 164.682 522.705ZM174.059 518.545V528H173.196V519.45H173.14L170.924 520.923V520.027L173.159 518.545H174.059ZM179.848 518.545V528H178.985V519.45H178.929L176.714 520.923V520.027L178.948 518.545H179.848ZM185.822 518.102L182.775 529.422H182.004L185.051 518.102H185.822ZM190.131 518.545V528H189.268V519.45H189.213L186.997 520.923V520.027L189.231 518.545H190.131ZM195.847 518.416C196.24 518.419 196.622 518.499 196.991 518.656C197.364 518.81 197.699 519.059 197.998 519.404C198.296 519.746 198.533 520.201 198.709 520.771C198.884 521.337 198.972 522.034 198.972 522.862C198.972 523.634 198.904 524.342 198.769 524.985C198.633 525.629 198.43 526.186 198.159 526.657C197.892 527.124 197.553 527.488 197.144 527.746C196.737 528.002 196.262 528.129 195.717 528.129C195.209 528.129 194.759 528.023 194.365 527.811C193.974 527.598 193.657 527.304 193.414 526.929C193.17 526.55 193.02 526.113 192.961 525.618H193.811C193.894 526.123 194.097 526.538 194.42 526.864C194.746 527.191 195.179 527.354 195.717 527.354C196.49 527.354 197.09 526.994 197.518 526.273C197.945 525.553 198.159 524.528 198.159 523.199H198.099C197.952 523.476 197.758 523.717 197.518 523.924C197.281 524.13 197.01 524.291 196.705 524.408C196.4 524.522 196.079 524.579 195.74 524.579C195.214 524.579 194.732 524.447 194.295 524.182C193.858 523.914 193.509 523.55 193.247 523.088C192.986 522.623 192.855 522.094 192.855 521.5C192.855 520.94 192.978 520.426 193.224 519.958C193.474 519.487 193.821 519.112 194.268 518.832C194.717 518.549 195.243 518.41 195.847 518.416ZM195.847 519.192C195.437 519.192 195.069 519.296 194.743 519.506C194.42 519.712 194.163 519.99 193.972 520.341C193.784 520.689 193.691 521.075 193.691 521.5C193.691 521.928 193.784 522.317 193.972 522.668C194.163 523.016 194.42 523.293 194.743 523.499C195.069 523.702 195.437 523.804 195.847 523.804C196.16 523.804 196.453 523.741 196.724 523.614C196.994 523.485 197.228 523.31 197.425 523.088C197.625 522.866 197.776 522.616 197.878 522.336C197.982 522.052 198.024 521.755 198.002 521.445C197.965 521.014 197.85 520.629 197.656 520.29C197.465 519.949 197.213 519.681 196.899 519.487C196.588 519.29 196.237 519.192 195.847 519.192ZM204.027 518.102L200.98 529.422H200.209L203.256 518.102H204.027ZM205.419 528V527.368L208.507 523.896C208.91 523.44 209.235 523.051 209.481 522.728C209.727 522.405 209.906 522.106 210.017 521.832C210.131 521.558 210.188 521.274 210.188 520.978C210.188 520.618 210.103 520.304 209.934 520.037C209.767 519.766 209.538 519.555 209.246 519.404C208.953 519.253 208.624 519.178 208.258 519.178C207.87 519.178 207.53 519.261 207.238 519.427C206.948 519.593 206.724 519.821 206.564 520.11C206.404 520.4 206.324 520.732 206.324 521.108H205.497C205.497 520.584 205.617 520.121 205.857 519.718C206.1 519.312 206.431 518.993 206.85 518.762C207.272 518.532 207.749 518.416 208.281 518.416C208.807 518.416 209.275 518.53 209.684 518.758C210.094 518.982 210.415 519.289 210.649 519.676C210.883 520.064 211 520.498 211 520.978C211 521.326 210.939 521.663 210.815 521.989C210.695 522.316 210.488 522.679 210.192 523.079C209.897 523.479 209.487 523.968 208.964 524.547L206.619 527.164V527.224H211.296V528H205.419ZM216.271 518.545V528H215.408V519.45H215.352L213.136 520.923V520.027L215.371 518.545H216.271ZM225.716 518.545V528H224.853V519.45H224.798L222.582 520.923V520.027L224.816 518.545H225.716ZM229.276 526.583C229.094 526.583 228.937 526.518 228.805 526.389C228.675 526.257 228.611 526.1 228.611 525.918C228.611 525.733 228.675 525.576 228.805 525.447C228.937 525.318 229.094 525.253 229.276 525.253C229.46 525.253 229.617 525.318 229.746 525.447C229.876 525.576 229.94 525.733 229.94 525.918C229.94 526.038 229.91 526.149 229.848 526.25C229.79 526.352 229.71 526.433 229.608 526.495C229.509 526.554 229.399 526.583 229.276 526.583ZM229.276 521.786C229.094 521.786 228.937 521.722 228.805 521.592C228.675 521.46 228.611 521.303 228.611 521.121C228.611 520.94 228.675 520.784 228.805 520.655C228.937 520.523 229.094 520.457 229.276 520.457C229.46 520.457 229.617 520.523 229.746 520.655C229.876 520.784 229.94 520.94 229.94 521.121C229.94 521.241 229.91 521.352 229.848 521.454C229.79 521.555 229.71 521.637 229.608 521.699C229.509 521.757 229.399 521.786 229.276 521.786ZM232.079 528V527.368L235.167 523.896C235.571 523.44 235.895 523.051 236.141 522.728C236.388 522.405 236.566 522.106 236.677 521.832C236.791 521.558 236.848 521.274 236.848 520.978C236.848 520.618 236.763 520.304 236.594 520.037C236.428 519.766 236.198 519.555 235.906 519.404C235.614 519.253 235.284 519.178 234.918 519.178C234.53 519.178 234.19 519.261 233.898 519.427C233.609 519.593 233.384 519.821 233.224 520.11C233.064 520.4 232.984 520.732 232.984 521.108H232.157C232.157 520.584 232.277 520.121 232.517 519.718C232.761 519.312 233.091 518.993 233.51 518.762C233.932 518.532 234.409 518.416 234.941 518.416C235.467 518.416 235.935 518.53 236.345 518.758C236.754 518.982 237.075 519.289 237.309 519.676C237.543 520.064 237.66 520.498 237.66 520.978C237.66 521.326 237.599 521.663 237.476 521.989C237.356 522.316 237.148 522.679 236.852 523.079C236.557 523.479 236.148 523.968 235.624 524.547L233.279 527.164V527.224H237.956V528H232.079ZM242.857 518.416C243.251 518.419 243.633 518.499 244.002 518.656C244.375 518.81 244.71 519.059 245.009 519.404C245.307 519.746 245.544 520.201 245.719 520.771C245.895 521.337 245.983 522.034 245.983 522.862C245.983 523.634 245.915 524.342 245.779 524.985C245.644 525.629 245.441 526.186 245.17 526.657C244.902 527.124 244.564 527.488 244.154 527.746C243.748 528.002 243.273 528.129 242.728 528.129C242.22 528.129 241.769 528.023 241.375 527.811C240.984 527.598 240.667 527.304 240.424 526.929C240.181 526.55 240.03 526.113 239.972 525.618H240.821C240.904 526.123 241.108 526.538 241.431 526.864C241.757 527.191 242.189 527.354 242.728 527.354C243.5 527.354 244.101 526.994 244.528 526.273C244.956 525.553 245.17 524.528 245.17 523.199H245.11C244.962 523.476 244.768 523.717 244.528 523.924C244.291 524.13 244.021 524.291 243.716 524.408C243.411 524.522 243.09 524.579 242.751 524.579C242.225 524.579 241.743 524.447 241.306 524.182C240.869 523.914 240.52 523.55 240.258 523.088C239.997 522.623 239.866 522.094 239.866 521.5C239.866 520.94 239.989 520.426 240.235 519.958C240.484 519.487 240.832 519.112 241.278 518.832C241.728 518.549 242.254 518.41 242.857 518.416ZM242.857 519.192C242.448 519.192 242.08 519.296 241.754 519.506C241.431 519.712 241.174 519.99 240.983 520.341C240.795 520.689 240.701 521.075 240.701 521.5C240.701 521.928 240.795 522.317 240.983 522.668C241.174 523.016 241.431 523.293 241.754 523.499C242.08 523.702 242.448 523.804 242.857 523.804C243.171 523.804 243.464 523.741 243.734 523.614C244.005 523.485 244.239 523.31 244.436 523.088C244.636 522.866 244.787 522.616 244.888 522.336C244.993 522.052 245.035 521.755 245.013 521.445C244.976 521.014 244.861 520.629 244.667 520.29C244.476 519.949 244.224 519.681 243.91 519.487C243.599 519.29 243.248 519.192 242.857 519.192ZM251.795 528V518.545H254.846C255.517 518.545 256.077 518.675 256.527 518.933C256.979 519.189 257.319 519.536 257.547 519.977C257.778 520.417 257.893 520.912 257.893 521.463C257.893 522.014 257.779 522.511 257.551 522.954C257.324 523.394 256.985 523.744 256.536 524.002C256.087 524.258 255.528 524.385 254.86 524.385H252.46V523.61H254.837C255.333 523.61 255.743 523.517 256.07 523.333C256.396 523.145 256.639 522.89 256.799 522.566C256.962 522.243 257.044 521.875 257.044 521.463C257.044 521.051 256.962 520.683 256.799 520.36C256.639 520.037 256.394 519.783 256.065 519.598C255.739 519.413 255.325 519.321 254.823 519.321H252.658V528H251.795ZM259.92 518.545H260.917L264.347 526.781H264.43L267.86 518.545H268.857V528H268.045V520.369H267.971L264.781 528H263.996L260.806 520.369H260.732V528H259.92V518.545Z" fill="black"/>
<path d="M43.2056 405H40.4045L44.6726 392.636H48.0412L52.3033 405H49.5021L46.4052 395.462H46.3086L43.2056 405ZM43.0305 400.14H49.647V402.181H43.0305V400.14ZM61.2425 398.371L58.8881 398.516C58.8478 398.315 58.7613 398.134 58.6285 397.973C58.4956 397.808 58.3206 397.677 58.1032 397.581C57.8899 397.48 57.6344 397.43 57.3366 397.43C56.9381 397.43 56.6021 397.514 56.3284 397.683C56.0547 397.848 55.9179 398.07 55.9179 398.347C55.9179 398.569 56.0064 398.756 56.1835 398.909C56.3606 399.062 56.6644 399.184 57.0951 399.277L58.7733 399.615C59.6749 399.8 60.347 400.098 60.7897 400.509C61.2324 400.919 61.4537 401.458 61.4537 402.126C61.4537 402.734 61.2747 403.267 60.9165 403.726C60.5623 404.185 60.0753 404.543 59.4555 404.801C58.8398 405.054 58.1294 405.181 57.3245 405.181C56.097 405.181 55.119 404.926 54.3905 404.414C53.6661 403.899 53.2415 403.199 53.1167 402.314L55.6462 402.181C55.7227 402.555 55.9078 402.841 56.2016 403.038C56.4954 403.231 56.8717 403.328 57.3305 403.328C57.7813 403.328 58.1435 403.241 58.4172 403.068C58.6949 402.891 58.8357 402.664 58.8398 402.386C58.8357 402.153 58.7371 401.961 58.5439 401.812C58.3508 401.66 58.0529 401.543 57.6505 401.462L56.0447 401.142C55.1391 400.961 54.465 400.647 54.0223 400.201C53.5836 399.754 53.3643 399.184 53.3643 398.492C53.3643 397.897 53.5252 397.383 53.8472 396.953C54.1732 396.522 54.63 396.19 55.2176 395.957C55.8092 395.723 56.5015 395.607 57.2943 395.607C58.4655 395.607 59.3871 395.854 60.0592 396.349C60.7354 396.844 61.1298 397.518 61.2425 398.371ZM70.7884 398.371L68.4339 398.516C68.3937 398.315 68.3072 398.134 68.1744 397.973C68.0415 397.808 67.8665 397.677 67.6491 397.581C67.4358 397.48 67.1803 397.43 66.8825 397.43C66.484 397.43 66.148 397.514 65.8743 397.683C65.6006 397.848 65.4638 398.07 65.4638 398.347C65.4638 398.569 65.5523 398.756 65.7294 398.909C65.9065 399.062 66.2103 399.184 66.641 399.277L68.3192 399.615C69.2208 399.8 69.8929 400.098 70.3356 400.509C70.7783 400.919 70.9996 401.458 70.9996 402.126C70.9996 402.734 70.8205 403.267 70.4624 403.726C70.1082 404.185 69.6212 404.543 69.0014 404.801C68.3857 405.054 67.6753 405.181 66.8704 405.181C65.6429 405.181 64.6649 404.926 63.9364 404.414C63.212 403.899 62.7874 403.199 62.6626 402.314L65.1921 402.181C65.2686 402.555 65.4537 402.841 65.7475 403.038C66.0413 403.231 66.4176 403.328 66.8764 403.328C67.3272 403.328 67.6894 403.241 67.9631 403.068C68.2408 402.891 68.3816 402.664 68.3857 402.386C68.3816 402.153 68.283 401.961 68.0898 401.812C67.8967 401.66 67.5988 401.543 67.1964 401.462L65.5906 401.142C64.685 400.961 64.0109 400.647 63.5682 400.201C63.1295 399.754 62.9102 399.184 62.9102 398.492C62.9102 397.897 63.0711 397.383 63.3931 396.953C63.7191 396.522 64.1759 396.19 64.7635 395.957C65.3551 395.723 66.0473 395.607 66.8402 395.607C68.0114 395.607 68.933 395.854 69.6051 396.349C70.2813 396.844 70.6757 397.518 70.7884 398.371ZM72.6191 405V395.727H75.1908V405H72.6191ZM73.911 394.532C73.5286 394.532 73.2006 394.405 72.9269 394.152C72.6573 393.894 72.5225 393.586 72.5225 393.228C72.5225 392.874 72.6573 392.57 72.9269 392.316C73.2006 392.059 73.5286 391.93 73.911 391.93C74.2933 391.93 74.6193 392.059 74.8889 392.316C75.1626 392.57 75.2994 392.874 75.2994 393.228C75.2994 393.586 75.1626 393.894 74.8889 394.152C74.6193 394.405 74.2933 394.532 73.911 394.532ZM81.4284 408.67C80.5953 408.67 79.881 408.556 79.2853 408.326C78.6937 408.101 78.2228 407.793 77.8727 407.403C77.5225 407.012 77.2952 406.574 77.1905 406.087L79.5691 405.767C79.6415 405.952 79.7562 406.125 79.9132 406.286C80.0701 406.447 80.2774 406.576 80.535 406.672C80.7966 406.773 81.1145 406.823 81.4888 406.823C82.0482 406.823 82.5091 406.686 82.8713 406.413C83.2375 406.143 83.4206 405.69 83.4206 405.054V403.358H83.312C83.1993 403.616 83.0302 403.859 82.8049 404.088C82.5795 404.318 82.2897 404.505 81.9355 404.65C81.5814 404.795 81.1588 404.867 80.6678 404.867C79.9715 404.867 79.3377 404.706 78.7662 404.384C78.1987 404.058 77.7459 403.561 77.4078 402.893C77.0738 402.221 76.9068 401.372 76.9068 400.346C76.9068 399.295 77.0778 398.418 77.4199 397.713C77.762 397.009 78.2168 396.482 78.7843 396.132C79.3558 395.782 79.9816 395.607 80.6618 395.607C81.1809 395.607 81.6156 395.695 81.9657 395.872C82.3159 396.045 82.5976 396.263 82.8109 396.524C83.0282 396.782 83.1953 397.035 83.312 397.285H83.4086V395.727H85.9622V405.091C85.9622 405.879 85.769 406.539 85.3826 407.071C84.9963 407.602 84.461 408 83.7768 408.266C83.0967 408.536 82.3139 408.67 81.4284 408.67ZM81.4828 402.935C81.8973 402.935 82.2475 402.833 82.5332 402.627C82.823 402.418 83.0443 402.12 83.1973 401.734C83.3542 401.344 83.4327 400.877 83.4327 400.333C83.4327 399.79 83.3562 399.319 83.2033 398.921C83.0504 398.518 82.829 398.206 82.5392 397.985C82.2495 397.764 81.8973 397.653 81.4828 397.653C81.0602 397.653 80.704 397.768 80.4142 397.997C80.1245 398.223 79.9051 398.536 79.7562 398.939C79.6073 399.341 79.5328 399.806 79.5328 400.333C79.5328 400.869 79.6073 401.332 79.7562 401.722C79.9092 402.108 80.1285 402.408 80.4142 402.621C80.704 402.831 81.0602 402.935 81.4828 402.935ZM90.5804 399.639V405H88.0087V395.727H90.4597V397.363H90.5684C90.7736 396.824 91.1177 396.397 91.6007 396.083C92.0836 395.766 92.6692 395.607 93.3574 395.607C94.0014 395.607 94.5628 395.747 95.0417 396.029C95.5207 396.311 95.8929 396.713 96.1586 397.237C96.4242 397.756 96.557 398.375 96.557 399.096V405H93.9853V399.555C93.9893 398.987 93.8444 398.545 93.5506 398.227C93.2568 397.905 92.8523 397.744 92.3372 397.744C91.9911 397.744 91.6852 397.818 91.4196 397.967C91.158 398.116 90.9527 398.333 90.8038 398.619C90.6589 398.901 90.5845 399.241 90.5804 399.639ZM98.5839 405V395.727H101.035V397.363H101.144C101.337 396.82 101.659 396.391 102.109 396.077C102.56 395.763 103.1 395.607 103.727 395.607C104.363 395.607 104.905 395.766 105.351 396.083C105.798 396.397 106.096 396.824 106.245 397.363H106.341C106.531 396.832 106.873 396.407 107.368 396.089C107.867 395.768 108.456 395.607 109.136 395.607C110.002 395.607 110.704 395.882 111.243 396.434C111.787 396.981 112.058 397.758 112.058 398.764V405H109.493V399.271C109.493 398.756 109.356 398.369 109.082 398.112C108.808 397.854 108.466 397.725 108.056 397.725C107.589 397.725 107.225 397.874 106.963 398.172C106.702 398.466 106.571 398.854 106.571 399.337V405H104.078V399.217C104.078 398.762 103.947 398.4 103.685 398.13C103.428 397.86 103.087 397.725 102.665 397.725C102.379 397.725 102.122 397.798 101.892 397.943C101.667 398.084 101.488 398.283 101.355 398.54C101.222 398.794 101.156 399.092 101.156 399.434V405H98.5839ZM118.316 405.181C117.362 405.181 116.541 404.988 115.853 404.602C115.168 404.211 114.641 403.66 114.271 402.947C113.901 402.231 113.715 401.384 113.715 400.406C113.715 399.452 113.901 398.615 114.271 397.895C114.641 397.174 115.162 396.613 115.834 396.21C116.511 395.808 117.303 395.607 118.213 395.607C118.825 395.607 119.394 395.705 119.921 395.902C120.453 396.096 120.916 396.387 121.31 396.778C121.708 397.168 122.018 397.659 122.24 398.251C122.461 398.838 122.572 399.527 122.572 400.315V401.022H114.742V399.428H120.151C120.151 399.058 120.07 398.73 119.909 398.444C119.748 398.158 119.525 397.935 119.239 397.774C118.958 397.609 118.63 397.526 118.255 397.526C117.865 397.526 117.519 397.617 117.217 397.798C116.919 397.975 116.686 398.214 116.517 398.516C116.348 398.814 116.261 399.146 116.257 399.512V401.028C116.257 401.487 116.342 401.883 116.511 402.217C116.684 402.551 116.927 402.809 117.241 402.99C117.555 403.171 117.927 403.261 118.358 403.261C118.644 403.261 118.905 403.221 119.143 403.141C119.38 403.06 119.583 402.939 119.752 402.778C119.921 402.617 120.05 402.42 120.139 402.187L122.517 402.344C122.397 402.915 122.149 403.414 121.775 403.841C121.405 404.263 120.926 404.594 120.338 404.831C119.754 405.064 119.08 405.181 118.316 405.181ZM126.822 399.639V405H124.25V395.727H126.701V397.363H126.81C127.015 396.824 127.359 396.397 127.842 396.083C128.325 395.766 128.91 395.607 129.599 395.607C130.243 395.607 130.804 395.747 131.283 396.029C131.762 396.311 132.134 396.713 132.4 397.237C132.665 397.756 132.798 398.375 132.798 399.096V405H130.226V399.555C130.23 398.987 130.086 398.545 129.792 398.227C129.498 397.905 129.094 397.744 128.578 397.744C128.232 397.744 127.926 397.818 127.661 397.967C127.399 398.116 127.194 398.333 127.045 398.619C126.9 398.901 126.826 399.241 126.822 399.639ZM139.757 395.727V397.659H134.173V395.727H139.757ZM135.441 393.506H138.013V402.151C138.013 402.388 138.049 402.573 138.121 402.706C138.194 402.835 138.294 402.925 138.423 402.978C138.556 403.03 138.709 403.056 138.882 403.056C139.003 403.056 139.123 403.046 139.244 403.026C139.365 403.002 139.457 402.984 139.522 402.972L139.926 404.885C139.798 404.926 139.616 404.972 139.383 405.024C139.15 405.08 138.866 405.115 138.532 405.127C137.912 405.151 137.369 405.068 136.902 404.879C136.439 404.69 136.079 404.396 135.821 403.998C135.564 403.599 135.437 403.096 135.441 402.489V393.506ZM148.029 392.636V405H145.415V392.636H148.029ZM152.703 399.639V405H150.132V395.727H152.583V397.363H152.691C152.897 396.824 153.241 396.397 153.724 396.083C154.207 395.766 154.792 395.607 155.48 395.607C156.124 395.607 156.686 395.747 157.165 396.029C157.644 396.311 158.016 396.713 158.282 397.237C158.547 397.756 158.68 398.375 158.68 399.096V405H156.108V399.555C156.112 398.987 155.967 398.545 155.674 398.227C155.38 397.905 154.975 397.744 154.46 397.744C154.114 397.744 153.808 397.818 153.543 397.967C153.281 398.116 153.076 398.333 152.927 398.619C152.782 398.901 152.708 399.241 152.703 399.639ZM165.693 395.727V397.659H159.97V395.727H165.693ZM161.28 405V395.057C161.28 394.385 161.411 393.828 161.673 393.385C161.938 392.942 162.301 392.61 162.759 392.389C163.218 392.167 163.739 392.057 164.323 392.057C164.717 392.057 165.078 392.087 165.404 392.147C165.734 392.208 165.979 392.262 166.14 392.31L165.681 394.242C165.581 394.21 165.456 394.18 165.307 394.152C165.162 394.123 165.013 394.109 164.86 394.109C164.482 394.109 164.218 394.198 164.07 394.375C163.921 394.548 163.846 394.792 163.846 395.105V405H161.28ZM171.122 405.181C170.184 405.181 169.373 404.982 168.689 404.583C168.009 404.181 167.484 403.622 167.114 402.905C166.743 402.185 166.558 401.35 166.558 400.4C166.558 399.442 166.743 398.605 167.114 397.888C167.484 397.168 168.009 396.609 168.689 396.21C169.373 395.808 170.184 395.607 171.122 395.607C172.06 395.607 172.869 395.808 173.549 396.21C174.233 396.609 174.76 397.168 175.131 397.888C175.501 398.605 175.686 399.442 175.686 400.4C175.686 401.35 175.501 402.185 175.131 402.905C174.76 403.622 174.233 404.181 173.549 404.583C172.869 404.982 172.06 405.181 171.122 405.181ZM171.134 403.189C171.561 403.189 171.917 403.068 172.203 402.827C172.489 402.581 172.704 402.247 172.849 401.825C172.998 401.402 173.072 400.921 173.072 400.382C173.072 399.842 172.998 399.362 172.849 398.939C172.704 398.516 172.489 398.182 172.203 397.937C171.917 397.691 171.561 397.569 171.134 397.569C170.704 397.569 170.341 397.691 170.048 397.937C169.758 398.182 169.538 398.516 169.39 398.939C169.245 399.362 169.172 399.842 169.172 400.382C169.172 400.921 169.245 401.402 169.39 401.825C169.538 402.247 169.758 402.581 170.048 402.827C170.341 403.068 170.704 403.189 171.134 403.189Z" fill="black"/>
<path d="M131.53 301.545L133.815 308.729H133.903L136.192 301.545H138.408L135.149 311H132.573L129.309 301.545H131.53ZM139.546 311V301.545H145.917V303.194H141.545V305.446H145.589V307.094H141.545V309.352H145.936V311H139.546ZM147.506 311V301.545H149.505V305.446H153.563V301.545H155.557V311H153.563V307.094H149.505V311H147.506ZM159.204 301.545V311H157.206V301.545H159.204ZM169.191 304.855H167.169C167.132 304.594 167.057 304.362 166.943 304.158C166.829 303.952 166.683 303.777 166.504 303.632C166.326 303.487 166.12 303.377 165.886 303.3C165.655 303.223 165.404 303.184 165.133 303.184C164.644 303.184 164.218 303.306 163.854 303.549C163.491 303.789 163.21 304.14 163.01 304.602C162.81 305.06 162.71 305.617 162.71 306.273C162.71 306.947 162.81 307.513 163.01 307.972C163.213 308.43 163.496 308.776 163.859 309.01C164.222 309.244 164.642 309.361 165.119 309.361C165.387 309.361 165.635 309.326 165.863 309.255C166.093 309.184 166.298 309.081 166.477 308.946C166.655 308.807 166.803 308.639 166.92 308.442C167.04 308.246 167.123 308.021 167.169 307.768L169.191 307.778C169.139 308.212 169.008 308.63 168.799 309.033C168.592 309.433 168.314 309.792 167.963 310.109C167.615 310.423 167.2 310.672 166.717 310.857C166.237 311.038 165.693 311.129 165.087 311.129C164.244 311.129 163.49 310.938 162.825 310.557C162.163 310.175 161.64 309.623 161.255 308.9C160.874 308.176 160.683 307.301 160.683 306.273C160.683 305.242 160.877 304.365 161.265 303.641C161.652 302.918 162.179 302.367 162.843 301.989C163.508 301.607 164.256 301.416 165.087 301.416C165.635 301.416 166.143 301.493 166.61 301.647C167.081 301.801 167.498 302.026 167.862 302.321C168.225 302.613 168.52 302.972 168.748 303.397C168.979 303.821 169.126 304.308 169.191 304.855ZM170.624 311V301.545H172.623V309.352H176.677V311H170.624ZM178 311V301.545H184.371V303.194H179.999V305.446H184.043V307.094H179.999V309.352H184.39V311H178ZM194.809 301.545H196.808V307.685C196.808 308.375 196.643 308.978 196.314 309.495C195.988 310.012 195.531 310.415 194.943 310.705C194.355 310.991 193.67 311.134 192.889 311.134C192.104 311.134 191.417 310.991 190.83 310.705C190.242 310.415 189.785 310.012 189.459 309.495C189.132 308.978 188.969 308.375 188.969 307.685V301.545H190.968V307.515C190.968 307.875 191.047 308.195 191.204 308.475C191.364 308.755 191.588 308.975 191.878 309.135C192.167 309.295 192.504 309.375 192.889 309.375C193.276 309.375 193.613 309.295 193.9 309.135C194.189 308.975 194.412 308.755 194.569 308.475C194.729 308.195 194.809 307.875 194.809 307.515V301.545ZM206.361 301.545V311H204.634L200.521 305.049H200.452V311H198.453V301.545H200.207L204.288 307.491H204.371V301.545H206.361ZM208.012 311V301.545H210.011V309.352H214.064V311H208.012ZM223.708 306.273C223.708 307.304 223.513 308.181 223.122 308.904C222.734 309.627 222.205 310.18 221.534 310.561C220.866 310.94 220.115 311.129 219.281 311.129C218.441 311.129 217.687 310.938 217.019 310.557C216.351 310.175 215.823 309.623 215.435 308.9C215.048 308.176 214.854 307.301 214.854 306.273C214.854 305.242 215.048 304.365 215.435 303.641C215.823 302.918 216.351 302.367 217.019 301.989C217.687 301.607 218.441 301.416 219.281 301.416C220.115 301.416 220.866 301.607 221.534 301.989C222.205 302.367 222.734 302.918 223.122 303.641C223.513 304.365 223.708 305.242 223.708 306.273ZM221.682 306.273C221.682 305.605 221.582 305.042 221.381 304.583C221.185 304.125 220.906 303.777 220.546 303.54C220.186 303.303 219.764 303.184 219.281 303.184C218.798 303.184 218.376 303.303 218.016 303.54C217.656 303.777 217.376 304.125 217.176 304.583C216.979 305.042 216.88 305.605 216.88 306.273C216.88 306.941 216.979 307.504 217.176 307.962C217.376 308.421 217.656 308.769 218.016 309.006C218.376 309.243 218.798 309.361 219.281 309.361C219.764 309.361 220.186 309.243 220.546 309.006C220.906 308.769 221.185 308.421 221.381 307.962C221.582 307.504 221.682 306.941 221.682 306.273ZM233.531 304.855H231.509C231.472 304.594 231.397 304.362 231.283 304.158C231.169 303.952 231.023 303.777 230.844 303.632C230.666 303.487 230.459 303.377 230.225 303.3C229.995 303.223 229.744 303.184 229.473 303.184C228.984 303.184 228.557 303.306 228.194 303.549C227.831 303.789 227.549 304.14 227.349 304.602C227.149 305.06 227.049 305.617 227.049 306.273C227.049 306.947 227.149 307.513 227.349 307.972C227.553 308.43 227.836 308.776 228.199 309.01C228.562 309.244 228.982 309.361 229.459 309.361C229.727 309.361 229.975 309.326 230.202 309.255C230.433 309.184 230.638 309.081 230.816 308.946C230.995 308.807 231.143 308.639 231.26 308.442C231.38 308.246 231.463 308.021 231.509 307.768L233.531 307.778C233.479 308.212 233.348 308.63 233.138 309.033C232.932 309.433 232.654 309.792 232.303 310.109C231.955 310.423 231.54 310.672 231.056 310.857C230.576 311.038 230.033 311.129 229.427 311.129C228.584 311.129 227.83 310.938 227.165 310.557C226.503 310.175 225.98 309.623 225.595 308.9C225.214 308.176 225.023 307.301 225.023 306.273C225.023 305.242 225.217 304.365 225.604 303.641C225.992 302.918 226.518 302.367 227.183 301.989C227.848 301.607 228.596 301.416 229.427 301.416C229.975 301.416 230.482 301.493 230.95 301.647C231.421 301.801 231.838 302.026 232.201 302.321C232.565 302.613 232.86 302.972 233.088 303.397C233.319 303.821 233.466 304.308 233.531 304.855ZM234.964 311V301.545H236.963V305.714H237.088L240.49 301.545H242.886L239.378 305.779L242.928 311H240.536L237.947 307.113L236.963 308.313V311H234.964ZM243.927 311V301.545H250.298V303.194H245.926V305.446H249.97V307.094H245.926V309.352H250.316V311H243.927ZM255.239 311H251.887V301.545H255.266C256.217 301.545 257.036 301.735 257.722 302.113C258.409 302.489 258.937 303.029 259.306 303.734C259.678 304.438 259.864 305.282 259.864 306.263C259.864 307.248 259.678 308.095 259.306 308.803C258.937 309.51 258.406 310.054 257.713 310.432C257.024 310.811 256.199 311 255.239 311ZM253.886 309.287H255.156C255.747 309.287 256.244 309.183 256.647 308.973C257.053 308.761 257.358 308.433 257.561 307.99C257.767 307.544 257.87 306.968 257.87 306.263C257.87 305.565 257.767 304.994 257.561 304.551C257.358 304.108 257.055 303.781 256.651 303.572C256.248 303.363 255.751 303.258 255.16 303.258H253.886V309.287Z" fill="#52A551"/>
<path d="M42.2056 609H39.4045L43.6726 596.636H47.0412L51.3033 609H48.5021L45.4052 599.462H45.3086L42.2056 609ZM42.0305 604.14H48.647V606.181H42.0305V604.14ZM55.7283 609.151C55.024 609.151 54.3861 608.97 53.8146 608.608C53.2472 608.241 52.7964 607.704 52.4624 606.996C52.1323 606.283 51.9673 605.41 51.9673 604.376C51.9673 603.313 52.1384 602.43 52.4805 601.725C52.8226 601.017 53.2773 600.488 53.8448 600.138C54.4163 599.784 55.0421 599.607 55.7223 599.607C56.2415 599.607 56.6741 599.695 57.0202 599.872C57.3704 600.045 57.6521 600.263 57.8654 600.524C58.0827 600.782 58.2478 601.035 58.3604 601.285H58.4389V596.636H61.0046V609H58.4691V607.515H58.3604C58.2397 607.772 58.0687 608.028 57.8473 608.282C57.63 608.531 57.3462 608.738 56.9961 608.903C56.65 609.068 56.2274 609.151 55.7283 609.151ZM56.5433 607.104C56.9579 607.104 57.308 606.992 57.5938 606.766C57.8835 606.537 58.1049 606.217 58.2578 605.806C58.4148 605.396 58.4933 604.915 58.4933 604.364C58.4933 603.812 58.4168 603.333 58.2638 602.927C58.1109 602.52 57.8896 602.206 57.5998 601.985C57.31 601.764 56.9579 601.653 56.5433 601.653C56.1207 601.653 55.7646 601.768 55.4748 601.997C55.185 602.227 54.9657 602.545 54.8168 602.951C54.6679 603.357 54.5934 603.828 54.5934 604.364C54.5934 604.903 54.6679 605.38 54.8168 605.794C54.9697 606.205 55.189 606.527 55.4748 606.76C55.7646 606.99 56.1207 607.104 56.5433 607.104ZM71.7639 599.727L68.5221 609H65.6244L62.3825 599.727H65.0992L67.0249 606.362H67.1215L69.0413 599.727H71.7639ZM75.4751 609.175C74.8835 609.175 74.3563 609.072 73.8935 608.867C73.4306 608.658 73.0644 608.35 72.7947 607.944C72.5291 607.533 72.3963 607.022 72.3963 606.41C72.3963 605.895 72.4909 605.462 72.68 605.112C72.8692 604.762 73.1268 604.48 73.4528 604.267C73.7788 604.054 74.149 603.893 74.5636 603.784C74.9821 603.675 75.4208 603.599 75.8796 603.555C76.4189 603.498 76.8536 603.446 77.1836 603.398C77.5136 603.345 77.7531 603.269 77.902 603.168C78.0509 603.068 78.1254 602.919 78.1254 602.722V602.685C78.1254 602.303 78.0046 602.007 77.7631 601.798C77.5257 601.589 77.1876 601.484 76.7489 601.484C76.2861 601.484 75.9179 601.587 75.6442 601.792C75.3705 601.993 75.1894 602.247 75.1009 602.553L72.7223 602.359C72.843 601.796 73.0805 601.309 73.4347 600.898C73.7888 600.484 74.2456 600.166 74.805 599.945C75.3685 599.719 76.0205 599.607 76.761 599.607C77.2762 599.607 77.7692 599.667 78.2401 599.788C78.715 599.908 79.1355 600.096 79.5018 600.349C79.872 600.603 80.1638 600.929 80.3771 601.327C80.5904 601.721 80.6971 602.194 80.6971 602.746V609H78.2582V607.714H78.1857C78.0368 608.004 77.8376 608.259 77.5881 608.481C77.3385 608.698 77.0387 608.869 76.6886 608.994C76.3384 609.115 75.9339 609.175 75.4751 609.175ZM76.2116 607.4C76.59 607.4 76.924 607.326 77.2138 607.177C77.5036 607.024 77.7309 606.819 77.896 606.561C78.061 606.304 78.1435 606.012 78.1435 605.686V604.702C78.063 604.754 77.9523 604.802 77.8114 604.847C77.6746 604.887 77.5196 604.925 77.3466 604.961C77.1735 604.993 77.0005 605.024 76.8274 605.052C76.6544 605.076 76.4974 605.098 76.3565 605.118C76.0547 605.163 75.7911 605.233 75.5657 605.33C75.3403 605.426 75.1652 605.557 75.0405 605.722C74.9157 605.883 74.8533 606.084 74.8533 606.326C74.8533 606.676 74.9801 606.943 75.2337 607.129C75.4912 607.31 75.8172 607.4 76.2116 607.4ZM85.264 603.639V609H82.6923V599.727H85.1433V601.363H85.252C85.4572 600.824 85.8013 600.397 86.2843 600.083C86.7672 599.766 87.3528 599.607 88.041 599.607C88.685 599.607 89.2464 599.747 89.7253 600.029C90.2042 600.311 90.5765 600.713 90.8422 601.237C91.1078 601.756 91.2406 602.375 91.2406 603.096V609H88.6689V603.555C88.6729 602.987 88.528 602.545 88.2342 602.227C87.9404 601.905 87.5359 601.744 87.0208 601.744C86.6747 601.744 86.3688 601.818 86.1032 601.967C85.8416 602.116 85.6363 602.333 85.4874 602.619C85.3425 602.901 85.2681 603.241 85.264 603.639ZM97.4571 609.181C96.5073 609.181 95.6903 608.98 95.0061 608.577C94.326 608.171 93.8028 607.607 93.4365 606.887C93.0743 606.167 92.8932 605.338 92.8932 604.4C92.8932 603.45 93.0763 602.617 93.4426 601.901C93.8128 601.18 94.338 600.619 95.0182 600.216C95.6984 599.81 96.5073 599.607 97.445 599.607C98.254 599.607 98.9623 599.753 99.57 600.047C100.178 600.341 100.659 600.754 101.013 601.285C101.367 601.816 101.562 602.44 101.598 603.156H99.1716C99.1032 602.693 98.9221 602.321 98.6283 602.039C98.3385 601.754 97.9582 601.611 97.4873 601.611C97.0889 601.611 96.7407 601.719 96.4429 601.937C96.1491 602.15 95.9197 602.462 95.7547 602.873C95.5897 603.283 95.5072 603.78 95.5072 604.364C95.5072 604.955 95.5877 605.458 95.7487 605.873C95.9137 606.287 96.1451 606.603 96.4429 606.821C96.7407 607.038 97.0889 607.147 97.4873 607.147C97.7811 607.147 98.0447 607.086 98.2781 606.966C98.5156 606.845 98.7108 606.67 98.8637 606.44C99.0207 606.207 99.1233 605.927 99.1716 605.601H101.598C101.558 606.31 101.365 606.933 101.019 607.473C100.677 608.008 100.204 608.426 99.6002 608.728C98.9965 609.03 98.2822 609.181 97.4571 609.181ZM107.471 609.181C106.517 609.181 105.696 608.988 105.008 608.602C104.324 608.211 103.796 607.66 103.426 606.947C103.056 606.231 102.871 605.384 102.871 604.406C102.871 603.452 103.056 602.615 103.426 601.895C103.796 601.174 104.318 600.613 104.99 600.21C105.666 599.808 106.459 599.607 107.368 599.607C107.98 599.607 108.549 599.705 109.077 599.902C109.608 600.096 110.071 600.387 110.465 600.778C110.864 601.168 111.174 601.659 111.395 602.251C111.616 602.838 111.727 603.527 111.727 604.315V605.022H103.897V603.428H109.306C109.306 603.058 109.226 602.73 109.065 602.444C108.904 602.158 108.68 601.935 108.395 601.774C108.113 601.609 107.785 601.526 107.411 601.526C107.02 601.526 106.674 601.617 106.372 601.798C106.074 601.975 105.841 602.214 105.672 602.516C105.503 602.814 105.416 603.146 105.412 603.512V605.028C105.412 605.487 105.497 605.883 105.666 606.217C105.839 606.551 106.082 606.809 106.396 606.99C106.71 607.171 107.083 607.261 107.513 607.261C107.799 607.261 108.06 607.221 108.298 607.141C108.535 607.06 108.739 606.939 108.908 606.778C109.077 606.617 109.205 606.42 109.294 606.187L111.673 606.344C111.552 606.915 111.304 607.414 110.93 607.841C110.56 608.263 110.081 608.594 109.493 608.831C108.91 609.064 108.236 609.181 107.471 609.181ZM116.822 609.151C116.118 609.151 115.48 608.97 114.908 608.608C114.341 608.241 113.89 607.704 113.556 606.996C113.226 606.283 113.061 605.41 113.061 604.376C113.061 603.313 113.232 602.43 113.574 601.725C113.916 601.017 114.371 600.488 114.939 600.138C115.51 599.784 116.136 599.607 116.816 599.607C117.335 599.607 117.768 599.695 118.114 599.872C118.464 600.045 118.746 600.263 118.959 600.524C119.176 600.782 119.342 601.035 119.454 601.285H119.533V596.636H122.098V609H119.563V607.515H119.454C119.333 607.772 119.162 608.028 118.941 608.282C118.724 608.531 118.44 608.738 118.09 608.903C117.744 609.068 117.321 609.151 116.822 609.151ZM117.637 607.104C118.052 607.104 118.402 606.992 118.688 606.766C118.977 606.537 119.199 606.217 119.352 605.806C119.509 605.396 119.587 604.915 119.587 604.364C119.587 603.812 119.511 603.333 119.358 602.927C119.205 602.52 118.983 602.206 118.694 601.985C118.404 601.764 118.052 601.653 117.637 601.653C117.214 601.653 116.858 601.768 116.569 601.997C116.279 602.227 116.059 602.545 115.911 602.951C115.762 603.357 115.687 603.828 115.687 604.364C115.687 604.903 115.762 605.38 115.911 605.794C116.063 606.205 116.283 606.527 116.569 606.76C116.858 606.99 117.214 607.104 117.637 607.104ZM139.557 602.818C139.557 604.166 139.302 605.313 138.79 606.259C138.283 607.205 137.591 607.927 136.714 608.426C135.84 608.922 134.858 609.169 133.768 609.169C132.669 609.169 131.683 608.92 130.81 608.42C129.936 607.921 129.246 607.199 128.739 606.253C128.232 605.307 127.978 604.162 127.978 602.818C127.978 601.47 128.232 600.323 128.739 599.377C129.246 598.431 129.936 597.711 130.81 597.216C131.683 596.717 132.669 596.467 133.768 596.467C134.858 596.467 135.84 596.717 136.714 597.216C137.591 597.711 138.283 598.431 138.79 599.377C139.302 600.323 139.557 601.47 139.557 602.818ZM136.907 602.818C136.907 601.945 136.776 601.208 136.515 600.609C136.257 600.009 135.893 599.554 135.422 599.244C134.951 598.934 134.4 598.779 133.768 598.779C133.136 598.779 132.585 598.934 132.114 599.244C131.643 599.554 131.277 600.009 131.015 600.609C130.757 601.208 130.629 601.945 130.629 602.818C130.629 603.692 130.757 604.428 131.015 605.028C131.277 605.627 131.643 606.082 132.114 606.392C132.585 606.702 133.136 606.857 133.768 606.857C134.4 606.857 134.951 606.702 135.422 606.392C135.893 606.082 136.257 605.627 136.515 605.028C136.776 604.428 136.907 603.692 136.907 602.818ZM141.445 612.477V599.727H143.981V601.285H144.095C144.208 601.035 144.371 600.782 144.584 600.524C144.802 600.263 145.083 600.045 145.43 599.872C145.78 599.695 146.214 599.607 146.734 599.607C147.41 599.607 148.034 599.784 148.605 600.138C149.177 600.488 149.633 601.017 149.975 601.725C150.318 602.43 150.489 603.313 150.489 604.376C150.489 605.41 150.322 606.283 149.987 606.996C149.657 607.704 149.207 608.241 148.635 608.608C148.068 608.97 147.432 609.151 146.728 609.151C146.228 609.151 145.804 609.068 145.454 608.903C145.108 608.738 144.824 608.531 144.603 608.282C144.381 608.028 144.212 607.772 144.095 607.515H144.017V612.477H141.445ZM143.963 604.364C143.963 604.915 144.039 605.396 144.192 605.806C144.345 606.217 144.566 606.537 144.856 606.766C145.146 606.992 145.498 607.104 145.913 607.104C146.331 607.104 146.685 606.99 146.975 606.76C147.265 606.527 147.484 606.205 147.633 605.794C147.786 605.38 147.862 604.903 147.862 604.364C147.862 603.828 147.788 603.357 147.639 602.951C147.49 602.545 147.271 602.227 146.981 601.997C146.691 601.768 146.335 601.653 145.913 601.653C145.494 601.653 145.14 601.764 144.85 601.985C144.564 602.206 144.345 602.52 144.192 602.927C144.039 603.333 143.963 603.812 143.963 604.364ZM156.429 609.181C155.475 609.181 154.654 608.988 153.966 608.602C153.282 608.211 152.754 607.66 152.384 606.947C152.014 606.231 151.829 605.384 151.829 604.406C151.829 603.452 152.014 602.615 152.384 601.895C152.754 601.174 153.276 600.613 153.948 600.21C154.624 599.808 155.417 599.607 156.326 599.607C156.938 599.607 157.507 599.705 158.035 599.902C158.566 600.096 159.029 600.387 159.423 600.778C159.822 601.168 160.132 601.659 160.353 602.251C160.574 602.838 160.685 603.527 160.685 604.315V605.022H152.855V603.428H158.264C158.264 603.058 158.184 602.73 158.023 602.444C157.862 602.158 157.638 601.935 157.353 601.774C157.071 601.609 156.743 601.526 156.369 601.526C155.978 601.526 155.632 601.617 155.33 601.798C155.032 601.975 154.799 602.214 154.63 602.516C154.461 602.814 154.374 603.146 154.37 603.512V605.028C154.37 605.487 154.455 605.883 154.624 606.217C154.797 606.551 155.04 606.809 155.354 606.99C155.668 607.171 156.041 607.261 156.471 607.261C156.757 607.261 157.018 607.221 157.256 607.141C157.493 607.06 157.697 606.939 157.866 606.778C158.035 606.617 158.164 606.42 158.252 606.187L160.631 606.344C160.51 606.915 160.262 607.414 159.888 607.841C159.518 608.263 159.039 608.594 158.451 608.831C157.868 609.064 157.194 609.181 156.429 609.181ZM162.363 609V599.727H164.856V601.345H164.953C165.122 600.77 165.406 600.335 165.804 600.041C166.203 599.743 166.661 599.594 167.181 599.594C167.309 599.594 167.448 599.603 167.597 599.619C167.746 599.635 167.877 599.657 167.99 599.685V601.967C167.869 601.931 167.702 601.899 167.489 601.87C167.275 601.842 167.08 601.828 166.903 601.828C166.525 601.828 166.187 601.911 165.889 602.076C165.595 602.237 165.362 602.462 165.188 602.752C165.019 603.042 164.935 603.376 164.935 603.754V609H162.363ZM171.698 609.175C171.106 609.175 170.579 609.072 170.116 608.867C169.653 608.658 169.287 608.35 169.017 607.944C168.752 607.533 168.619 607.022 168.619 606.41C168.619 605.895 168.714 605.462 168.903 605.112C169.092 604.762 169.349 604.48 169.675 604.267C170.001 604.054 170.372 603.893 170.786 603.784C171.205 603.675 171.643 603.599 172.102 603.555C172.642 603.498 173.076 603.446 173.406 603.398C173.736 603.345 173.976 603.269 174.125 603.168C174.274 603.068 174.348 602.919 174.348 602.722V602.685C174.348 602.303 174.227 602.007 173.986 601.798C173.748 601.589 173.41 601.484 172.972 601.484C172.509 601.484 172.141 601.587 171.867 601.792C171.593 601.993 171.412 602.247 171.324 602.553L168.945 602.359C169.066 601.796 169.303 601.309 169.657 600.898C170.011 600.484 170.468 600.166 171.028 599.945C171.591 599.719 172.243 599.607 172.984 599.607C173.499 599.607 173.992 599.667 174.463 599.788C174.938 599.908 175.358 600.096 175.724 600.349C176.095 600.603 176.386 600.929 176.6 601.327C176.813 601.721 176.92 602.194 176.92 602.746V609H174.481V607.714H174.408C174.259 608.004 174.06 608.259 173.811 608.481C173.561 608.698 173.261 608.869 172.911 608.994C172.561 609.115 172.157 609.175 171.698 609.175ZM172.434 607.4C172.813 607.4 173.147 607.326 173.436 607.177C173.726 607.024 173.954 606.819 174.119 606.561C174.284 606.304 174.366 606.012 174.366 605.686V604.702C174.286 604.754 174.175 604.802 174.034 604.847C173.897 604.887 173.742 604.925 173.569 604.961C173.396 604.993 173.223 605.024 173.05 605.052C172.877 605.076 172.72 605.098 172.579 605.118C172.277 605.163 172.014 605.233 171.788 605.33C171.563 605.426 171.388 605.557 171.263 605.722C171.138 605.883 171.076 606.084 171.076 606.326C171.076 606.676 171.203 606.943 171.456 607.129C171.714 607.31 172.04 607.4 172.434 607.4ZM183.847 599.727V601.659H178.263V599.727H183.847ZM179.531 597.506H182.102V606.151C182.102 606.388 182.139 606.573 182.211 606.706C182.284 606.835 182.384 606.925 182.513 606.978C182.646 607.03 182.799 607.056 182.972 607.056C183.093 607.056 183.213 607.046 183.334 607.026C183.455 607.002 183.547 606.984 183.612 606.972L184.016 608.885C183.887 608.926 183.706 608.972 183.473 609.024C183.239 609.08 182.956 609.115 182.622 609.127C182.002 609.151 181.459 609.068 180.992 608.879C180.529 608.69 180.169 608.396 179.911 607.998C179.653 607.599 179.527 607.096 179.531 606.489V597.506ZM185.522 609V599.727H188.094V609H185.522ZM186.814 598.532C186.432 598.532 186.104 598.405 185.83 598.152C185.561 597.894 185.426 597.586 185.426 597.228C185.426 596.874 185.561 596.57 185.83 596.316C186.104 596.059 186.432 595.93 186.814 595.93C187.197 595.93 187.523 596.059 187.792 596.316C188.066 596.57 188.203 596.874 188.203 597.228C188.203 597.586 188.066 597.894 187.792 598.152C187.523 598.405 187.197 598.532 186.814 598.532ZM194.344 609.181C193.406 609.181 192.595 608.982 191.911 608.583C191.231 608.181 190.706 607.622 190.335 606.905C189.965 606.185 189.78 605.35 189.78 604.4C189.78 603.442 189.965 602.605 190.335 601.888C190.706 601.168 191.231 600.609 191.911 600.21C192.595 599.808 193.406 599.607 194.344 599.607C195.282 599.607 196.091 599.808 196.771 600.21C197.455 600.609 197.982 601.168 198.352 601.888C198.723 602.605 198.908 603.442 198.908 604.4C198.908 605.35 198.723 606.185 198.352 606.905C197.982 607.622 197.455 608.181 196.771 608.583C196.091 608.982 195.282 609.181 194.344 609.181ZM194.356 607.189C194.783 607.189 195.139 607.068 195.424 606.827C195.71 606.581 195.926 606.247 196.07 605.825C196.219 605.402 196.294 604.921 196.294 604.382C196.294 603.842 196.219 603.362 196.07 602.939C195.926 602.516 195.71 602.182 195.424 601.937C195.139 601.691 194.783 601.569 194.356 601.569C193.925 601.569 193.563 601.691 193.269 601.937C192.979 602.182 192.76 602.516 192.611 602.939C192.466 603.362 192.394 603.842 192.394 604.382C192.394 604.921 192.466 605.402 192.611 605.825C192.76 606.247 192.979 606.581 193.269 606.827C193.563 607.068 193.925 607.189 194.356 607.189ZM203.152 603.639V609H200.58V599.727H203.031V601.363H203.14C203.345 600.824 203.689 600.397 204.172 600.083C204.655 599.766 205.241 599.607 205.929 599.607C206.573 599.607 207.134 599.747 207.613 600.029C208.092 600.311 208.464 600.713 208.73 601.237C208.995 601.756 209.128 602.375 209.128 603.096V609H206.557V603.555C206.561 602.987 206.416 602.545 206.122 602.227C205.828 601.905 205.424 601.744 204.908 601.744C204.562 601.744 204.256 601.818 203.991 601.967C203.729 602.116 203.524 602.333 203.375 602.619C203.23 602.901 203.156 603.241 203.152 603.639Z" fill="#6D6D6D"/>
<path d="M329 599L334.5 606L340 599" stroke="#6D6D6D" stroke-width="2" stroke-linecap="round" stroke-linejoin="round"/>
</g>
</g>
<defs>
<filter id="filter0_dd_57323_15625" x="5" y="11" width="386" height="691" filterUnits="userSpaceOnUse" color-interpolation-filters="sRGB">
<feFlood flood-opacity="0" result="BackgroundImageFix"/>
<feColorMatrix in="SourceAlpha" type="matrix" values="0 0 0 0 0 0 0 0 0 0 0 0 0 0 0 0 0 0 127 0" result="hardAlpha"/>
<feOffset dy="2"/>
<feGaussianBlur stdDeviation="1.5"/>
<feColorMatrix type="matrix" values="0 0 0 0 0 0 0 0 0 0 0 0 0 0 0 0 0 0 0.3 0"/>
<feBlend mode="normal" in2="BackgroundImageFix" result="effect1_dropShadow_57323_15625"/>
<feColorMatrix in="SourceAlpha" type="matrix" values="0 0 0 0 0 0 0 0 0 0 0 0 0 0 0 0 0 0 127 0" result="hardAlpha"/>
<feMorphology radius="4" operator="dilate" in="SourceAlpha" result="effect2_dropShadow_57323_15625"/>
<feOffset dy="6"/>
<feGaussianBlur stdDeviation="5"/>
<feColorMatrix type="matrix" values="0 0 0 0 0 0 0 0 0 0 0 0 0 0 0 0 0 0 0.15 0"/>
<feBlend mode="normal" in2="effect1_dropShadow_57323_15625" result="effect2_dropShadow_57323_15625"/>
<feBlend mode="normal" in="SourceGraphic" in2="effect2_dropShadow_57323_15625" result="shape"/>
</filter>
<filter id="filter1_d_57323_15625" x="34" y="150" width="319" height="79" filterUnits="userSpaceOnUse" color-interpolation-filters="sRGB">
<feFlood flood-opacity="0" result="BackgroundImageFix"/>
<feColorMatrix in="SourceAlpha" type="matrix" values="0 0 0 0 0 0 0 0 0 0 0 0 0 0 0 0 0 0 127 0" result="hardAlpha"/>
<feOffset dy="4"/>
<feGaussianBlur stdDeviation="3"/>
<feComposite in2="hardAlpha" operator="out"/>
<feColorMatrix type="matrix" values="0 0 0 0 0 0 0 0 0 0 0 0 0 0 0 0 0 0 0.2 0"/>
<feBlend mode="normal" in2="BackgroundImageFix" result="effect1_dropShadow_57323_15625"/>
<feBlend mode="normal" in="SourceGraphic" in2="effect1_dropShadow_57323_15625" result="shape"/>
</filter>
<filter id="filter2_d_57323_15625" x="34" y="232" width="162" height="70" filterUnits="userSpaceOnUse" color-interpolation-filters="sRGB">
<feFlood flood-opacity="0" result="BackgroundImageFix"/>
<feColorMatrix in="SourceAlpha" type="matrix" values="0 0 0 0 0 0 0 0 0 0 0 0 0 0 0 0 0 0 127 0" result="hardAlpha"/>
<feOffset dy="4"/>
<feGaussianBlur stdDeviation="3"/>
<feComposite in2="hardAlpha" operator="out"/>
<feColorMatrix type="matrix" values="0 0 0 0 0 0 0 0 0 0 0 0 0 0 0 0 0 0 0.2 0"/>
<feBlend mode="normal" in2="BackgroundImageFix" result="effect1_dropShadow_57323_15625"/>
<feBlend mode="normal" in="SourceGraphic" in2="effect1_dropShadow_57323_15625" result="shape"/>
</filter>
<filter id="filter3_d_57323_15625" x="195" y="232" width="162" height="70" filterUnits="userSpaceOnUse" color-interpolation-filters="sRGB">
<feFlood flood-opacity="0" result="BackgroundImageFix"/>
<feColorMatrix in="SourceAlpha" type="matrix" values="0 0 0 0 0 0 0 0 0 0 0 0 0 0 0 0 0 0 127 0" result="hardAlpha"/>
<feOffset dy="4"/>
<feGaussianBlur stdDeviation="3"/>
<feComposite in2="hardAlpha" operator="out"/>
<feColorMatrix type="matrix" values="0 0 0 0 0 0 0 0 0 0 0 0 0 0 0 0 0 0 0.2 0"/>
<feBlend mode="normal" in2="BackgroundImageFix" result="effect1_dropShadow_57323_15625"/>
<feBlend mode="normal" in="SourceGraphic" in2="effect1_dropShadow_57323_15625" result="shape"/>
</filter>
<clipPath id="clip0_57323_15625">
<rect width="396" height="701" fill="white"/>
</clipPath>
</defs>
</svg>
